<?xml version="1.0" encoding="utf-8"?>
<!-- Generator: Adobe Illustrator 16.0.0, SVG Export Plug-In . SVG Version: 6.00 Build 0)  -->
<!DOCTYPE svg PUBLIC "-//W3C//DTD SVG 1.1//EN" "http://www.w3.org/Graphics/SVG/1.1/DTD/svg11.dtd">
<svg version="1.1" id="레이어_1" xmlns="http://www.w3.org/2000/svg" xmlns:xlink="http://www.w3.org/1999/xlink" x="0px"
	 y="0px" width="117px" height="24px" viewBox="0 0 117 24" enable-background="new 0 0 117 24" xml:space="preserve">
<g>
	<linearGradient id="SVGID_1_" gradientUnits="userSpaceOnUse" x1="0.4399" y1="10.8193" x2="14.3413" y2="10.8193">
		<stop  offset="0" style="stop-color:#28C9C1"/>
		<stop  offset="1" style="stop-color:#2CB9DA"/>
	</linearGradient>
	<path fill="url(#SVGID_1_)" d="M14.341,10.796c-0.013-3.829-3.119-6.929-6.951-6.929c-3.839,0-6.951,3.112-6.951,6.951
		c0,3.837,3.112,6.952,6.951,6.952c2.254,0,4.254-1.077,5.523-2.741c0.055-0.06,0.104-0.124,0.146-0.194
		c0.004-0.007,0.01-0.014,0.014-0.019h-0.003c0.098-0.172,0.154-0.367,0.154-0.578c0-0.645-0.522-1.167-1.167-1.167
		c-0.411,0-0.772,0.205-0.98,0.528c-0.843,1.116-2.181,1.838-3.688,1.838c-2.551,0-4.62-2.067-4.62-4.619
		c0-2.552,2.069-4.62,4.62-4.62c2.539,0,4.598,2.048,4.618,4.583c0,0.005,0,0.01,0,0.015c0,0.645,0.523,1.167,1.166,1.167
		C13.819,11.963,14.341,11.441,14.341,10.796L14.341,10.796L14.341,10.796z"/>
	<linearGradient id="SVGID_2_" gradientUnits="userSpaceOnUse" x1="0.4399" y1="10.7969" x2="14.3413" y2="10.7969">
		<stop  offset="0" style="stop-color:#28C9C1"/>
		<stop  offset="1" style="stop-color:#2CB9DA"/>
	</linearGradient>
	<path fill="url(#SVGID_2_)" d="M13.171,9.63H1.606c-0.644,0-1.166,0.522-1.166,1.166c0,0.645,0.522,1.167,1.166,1.167h11.565
		c0.646,0,1.17-0.522,1.17-1.167C14.341,10.152,13.817,9.63,13.171,9.63z"/>
	<g>
		<linearGradient id="SVGID_3_" gradientUnits="userSpaceOnUse" x1="0.439" y1="10.8184" x2="14.3406" y2="10.8184">
			<stop  offset="0" style="stop-color:#28B9C1"/>
			<stop  offset="1" style="stop-color:#2CA9DA"/>
		</linearGradient>
		<path fill="url(#SVGID_3_)" d="M14.341,10.819c0-0.645-0.524-1.167-1.17-1.167h-1.316c0.097,0.368,0.151,0.753,0.154,1.151
			c0,0.005,0,0.01,0,0.016c0,0.643,0.521,1.165,1.165,1.165C13.818,11.984,14.341,11.461,14.341,10.819L14.341,10.819L14.341,10.819
			z"/>
		<linearGradient id="SVGID_4_" gradientUnits="userSpaceOnUse" x1="0.4399" y1="10.8184" x2="14.3419" y2="10.8184">
			<stop  offset="0" style="stop-color:#28B9C1"/>
			<stop  offset="1" style="stop-color:#2CA9DA"/>
		</linearGradient>
		<path fill="url(#SVGID_4_)" d="M2.926,9.652h-1.32c-0.637,0-1.153,0.51-1.165,1.144c0,0.01-0.001,0.02-0.001,0.029
			c0.004,0.641,0.524,1.159,1.166,1.159h1.308c-0.093-0.367-0.143-0.75-0.143-1.144C2.771,10.43,2.825,10.032,2.926,9.652z"/>
	</g>
</g>
<g>
	
		<linearGradient id="SVGID_5_" gradientUnits="userSpaceOnUse" x1="4859.541" y1="-3581.373" x2="4878.1348" y2="-3581.373" gradientTransform="matrix(0.7071 0.7071 -0.7071 0.7071 -5951.6084 -899.5469)">
		<stop  offset="0" style="stop-color:#E53D57"/>
		<stop  offset="1" style="stop-color:#E53DA3"/>
	</linearGradient>
	<path fill="url(#SVGID_5_)" d="M30.159,15.754L18.672,4.25c-0.456-0.455-1.193-0.455-1.648,0c-0.456,0.456-0.456,1.194,0,1.649
		L28.51,17.402c0.457,0.458,1.196,0.459,1.651,0.004C30.617,16.949,30.616,16.21,30.159,15.754z"/>
	
		<linearGradient id="SVGID_6_" gradientUnits="userSpaceOnUse" x1="-5973.8887" y1="-858.6538" x2="-5955.2964" y2="-858.6538" gradientTransform="matrix(0.7071 -0.7071 0.7071 0.7071 4848.356 -3599.6182)">
		<stop  offset="0" style="stop-color:#E53D57"/>
		<stop  offset="1" style="stop-color:#E53DA3"/>
	</linearGradient>
	<path fill="url(#SVGID_6_)" d="M28.519,4.26L17.015,15.746c-0.456,0.456-0.456,1.194,0,1.648c0.456,0.456,1.194,0.456,1.648,0
		L30.168,5.909c0.457-0.456,0.458-1.196,0.002-1.652C29.715,3.803,28.976,3.804,28.519,4.26z"/>
	
		<linearGradient id="SVGID_7_" gradientUnits="userSpaceOnUse" x1="-5967.6494" y1="-854.833" x2="-5949.0542" y2="-854.833" gradientTransform="matrix(0.7077 -0.7065 0.7065 0.7077 4844.4717 -3593.5947)">
		<stop  offset="0" style="stop-color:#D83D57"/>
		<stop  offset="1" style="stop-color:#D53DA3"/>
	</linearGradient>
	<polygon fill="url(#SVGID_7_)" points="23.595,9.178 21.943,10.825 23.59,12.477 25.241,10.83 	"/>
</g>
<g>
	
		<linearGradient id="SVGID_8_" gradientUnits="userSpaceOnUse" x1="-9955.3184" y1="-6106.3745" x2="-9941.418" y2="-6106.3745" gradientTransform="matrix(-4.371139e-08 -1 1 -4.371139e-08 6172.8516 -9937.1475)">
		<stop  offset="0" style="stop-color:#28C9C1"/>
		<stop  offset="1" style="stop-color:#2CB9DA"/>
	</linearGradient>
	<path fill="url(#SVGID_8_)" d="M65.311,5.441v11.564c0,0.645,0.522,1.166,1.165,1.166c0.646,0,1.168-0.521,1.168-1.166V5.441
		c0-0.647-0.522-1.17-1.168-1.17C65.833,4.271,65.311,4.794,65.311,5.441z"/>
	<linearGradient id="SVGID_9_" gradientUnits="userSpaceOnUse" x1="65.3105" y1="1.5352" x2="67.6436" y2="1.5352">
		<stop  offset="0" style="stop-color:#28C9C1"/>
		<stop  offset="1" style="stop-color:#2CB9DA"/>
	</linearGradient>
	<circle fill="url(#SVGID_9_)" cx="66.477" cy="1.536" r="1.167"/>
</g>
<g>
	<linearGradient id="SVGID_10_" gradientUnits="userSpaceOnUse" x1="32.8442" y1="13.7354" x2="46.7451" y2="13.7354">
		<stop  offset="0" style="stop-color:#28C9C1"/>
		<stop  offset="1" style="stop-color:#2CB9DA"/>
	</linearGradient>
	<path fill="url(#SVGID_10_)" d="M46.743,10.776c-0.05-3.796-3.14-6.858-6.948-6.858c-3.838,0-6.95,3.112-6.95,6.95
		c0,3.838,3.112,6.951,6.95,6.951c1.774,0,3.391-0.665,4.618-1.758v6.327c0,0.644,0.522,1.165,1.167,1.165
		c0.644,0,1.166-0.521,1.166-1.165V10.822C46.745,10.806,46.743,10.792,46.743,10.776z M39.794,15.488
		c-2.551,0-4.62-2.068-4.62-4.621c0-2.551,2.069-4.62,4.62-4.62c2.536,0,4.594,2.043,4.618,4.574l0,0v0.093
		C44.388,13.443,42.33,15.488,39.794,15.488z"/>
	
		<linearGradient id="SVGID_11_" gradientUnits="userSpaceOnUse" x1="-9960.6992" y1="-6127.2734" x2="-9946.7998" y2="-6127.2734" gradientTransform="matrix(-4.371139e-08 -1 1 -4.371139e-08 6172.8516 -9937.1475)">
		<stop  offset="0" style="stop-color:#28B9C1"/>
		<stop  offset="1" style="stop-color:#2CA9DA"/>
	</linearGradient>
	<path fill="url(#SVGID_11_)" d="M45.58,9.652c-0.645,0-1.167,0.523-1.167,1.17c0,0.015,0.001,0.03,0.001,0.045
		c0,0.016-0.001,0.031-0.001,0.047v5.146c1.431-1.272,2.333-3.127,2.333-5.193c0-0.03-0.002-0.062-0.002-0.092
		C46.718,10.151,46.208,9.652,45.58,9.652z"/>
</g>
<g>
	<linearGradient id="SVGID_12_" gradientUnits="userSpaceOnUse" x1="49.0771" y1="11.2217" x2="62.9785" y2="11.2217">
		<stop  offset="0" style="stop-color:#28C9C1"/>
		<stop  offset="1" style="stop-color:#2CB9DA"/>
	</linearGradient>
	<path fill="url(#SVGID_12_)" d="M61.812,4.271c-0.643,0-1.164,0.523-1.164,1.17v0.233v5.146v0.094
		c-0.026,2.528-2.084,4.573-4.619,4.573c-2.536,0-4.594-2.045-4.618-4.573c0-0.016-0.001-0.032-0.001-0.047
		c0-0.016,0.001-0.03,0.001-0.046V5.675V5.441c0-0.647-0.523-1.17-1.167-1.17c-0.644,0-1.167,0.523-1.167,1.17v5.426
		c0,3.838,3.112,6.951,6.951,6.951c1.773,0,3.39-0.665,4.619-1.758v0.945c0,0.645,0.521,1.166,1.164,1.166
		c0.646,0,1.167-0.521,1.167-1.166v-6.138V5.441C62.979,4.794,62.457,4.271,61.812,4.271z"/>
	
		<linearGradient id="SVGID_13_" gradientUnits="userSpaceOnUse" x1="-9955.3184" y1="-6111.0386" x2="-9941.418" y2="-6111.0386" gradientTransform="matrix(-4.371139e-08 -1 1 -4.371139e-08 6172.8516 -9937.1475)">
		<stop  offset="0" style="stop-color:#28B9C1"/>
		<stop  offset="1" style="stop-color:#2CA9DA"/>
	</linearGradient>
	<path fill="url(#SVGID_13_)" d="M61.812,4.271c-0.643,0-1.164,0.523-1.164,1.17v0.233v5.146c0,0.016,0.001,0.03,0.001,0.046
		c0,0.016-0.001,0.031-0.001,0.047v5.146c1.431-1.272,2.331-3.127,2.331-5.193V5.441C62.979,4.794,62.457,4.271,61.812,4.271z"/>
</g>
<g>
	<linearGradient id="SVGID_14_" gradientUnits="userSpaceOnUse" x1="69.9746" y1="11.2217" x2="83.876" y2="11.2217">
		<stop  offset="0" style="stop-color:#28C9C1"/>
		<stop  offset="1" style="stop-color:#2CB9DA"/>
	</linearGradient>
	<path fill="url(#SVGID_14_)" d="M82.707,15.841h-8.75l9.578-9.58c0.077-0.077,0.141-0.164,0.191-0.255
		c0.004-0.004,0.006-0.01,0.01-0.015c0.014-0.026,0.025-0.05,0.035-0.076c0.006-0.01,0.011-0.02,0.014-0.03
		c0.01-0.021,0.019-0.044,0.026-0.067c0.005-0.015,0.011-0.027,0.015-0.041c0.006-0.021,0.011-0.042,0.017-0.064
		c0.003-0.016,0.008-0.031,0.012-0.047c0.003-0.023,0.005-0.045,0.01-0.068c0.002-0.015,0.005-0.029,0.006-0.045
		c0.008-0.076,0.008-0.154,0-0.229c-0.001-0.017-0.004-0.031-0.006-0.047c-0.005-0.022-0.007-0.045-0.01-0.067
		c-0.004-0.018-0.009-0.033-0.012-0.049c-0.006-0.021-0.011-0.041-0.017-0.062c-0.004-0.015-0.011-0.028-0.016-0.042
		c-0.007-0.022-0.016-0.045-0.024-0.066c-0.004-0.012-0.011-0.021-0.015-0.032c-0.01-0.024-0.022-0.049-0.034-0.073
		c-0.005-0.006-0.008-0.011-0.012-0.017c-0.016-0.028-0.03-0.055-0.049-0.081c0-0.001-0.001-0.001-0.001-0.001
		c-0.04-0.061-0.086-0.118-0.141-0.171c-0.229-0.229-0.529-0.342-0.826-0.342h-0.002H71.142c-0.645,0-1.167,0.522-1.167,1.167
		c0,0.644,0.522,1.166,1.167,1.166h8.754l-9.578,9.576c0,0.001,0,0.001,0,0.001c-0.027,0.027-0.054,0.057-0.077,0.087
		c-0.004,0.002-0.005,0.006-0.006,0.007c-0.024,0.028-0.045,0.058-0.064,0.087c-0.003,0.005-0.007,0.011-0.01,0.015
		c-0.018,0.029-0.033,0.057-0.047,0.084c-0.005,0.007-0.007,0.013-0.012,0.019c-0.013,0.028-0.027,0.057-0.039,0.085
		c-0.002,0.005-0.003,0.012-0.006,0.018c-0.013,0.028-0.022,0.061-0.03,0.091c-0.004,0.004-0.005,0.011-0.006,0.016
		c-0.008,0.029-0.015,0.062-0.021,0.094c-0.003,0.008-0.003,0.015-0.004,0.023c-0.007,0.028-0.012,0.058-0.015,0.088
		c-0.004,0.035-0.005,0.073-0.005,0.108c0,0.001-0.001,0.004-0.001,0.005s0,0.002,0,0.002c0,0.038,0.002,0.078,0.006,0.114
		c0.001,0.008,0.003,0.017,0.004,0.024c0.004,0.029,0.009,0.061,0.015,0.092c0.002,0.007,0.003,0.015,0.007,0.021
		c0.005,0.029,0.012,0.062,0.022,0.09c0.001,0.005,0.002,0.01,0.003,0.013c0.055,0.173,0.149,0.332,0.284,0.469
		c0.138,0.135,0.298,0.229,0.47,0.284c0.005,0.002,0.009,0.004,0.012,0.004c0.03,0.011,0.062,0.018,0.091,0.025
		c0.008,0.001,0.015,0.003,0.021,0.004c0.031,0.006,0.062,0.011,0.093,0.016c0.007,0,0.016,0.002,0.023,0.002
		c0.037,0.004,0.076,0.006,0.116,0.006l0,0h11.565c0.646,0,1.169-0.521,1.169-1.166S83.354,15.841,82.707,15.841z"/>
	<g>
		
			<linearGradient id="SVGID_15_" gradientUnits="userSpaceOnUse" x1="-355.8271" y1="-15309.0488" x2="-337.1313" y2="-15309.0488" gradientTransform="matrix(-0.7071 0.7071 -0.7071 -0.7071 -10993.2061 -10568.9111)">
			<stop  offset="0" style="stop-color:#28B9C1"/>
			<stop  offset="1" style="stop-color:#2CA9DA"/>
		</linearGradient>
		<path fill="url(#SVGID_15_)" d="M83.727,6.006c0.004-0.004,0.006-0.01,0.01-0.015c0.014-0.024,0.025-0.05,0.035-0.076
			c0.006-0.01,0.011-0.02,0.014-0.028c0.01-0.023,0.019-0.045,0.026-0.069c0.005-0.014,0.011-0.027,0.015-0.041
			c0.006-0.021,0.011-0.042,0.017-0.064c0.003-0.016,0.008-0.031,0.012-0.047c0.003-0.022,0.005-0.045,0.01-0.068
			c0.002-0.015,0.005-0.029,0.006-0.045c0.003-0.038,0.006-0.076,0.006-0.114c0-0.04-0.003-0.078-0.006-0.115
			c-0.001-0.017-0.004-0.031-0.006-0.047c-0.005-0.022-0.007-0.045-0.01-0.067c-0.004-0.016-0.009-0.033-0.012-0.049
			c-0.006-0.021-0.011-0.041-0.017-0.062c-0.004-0.015-0.011-0.028-0.016-0.042c-0.007-0.022-0.016-0.045-0.024-0.066
			c-0.004-0.012-0.011-0.021-0.015-0.031c-0.01-0.025-0.022-0.05-0.034-0.072c-0.005-0.006-0.008-0.013-0.012-0.019
			c-0.016-0.027-0.03-0.055-0.049-0.081l-0.001-0.001c-0.21-0.309-0.565-0.512-0.967-0.513c-0.299,0.001-0.596,0.115-0.823,0.342
			l-1.99,1.991h2.812C83.146,6.604,83.528,6.363,83.727,6.006z"/>
		
			<linearGradient id="SVGID_16_" gradientUnits="userSpaceOnUse" x1="-355.8237" y1="-15309.0498" x2="-337.1347" y2="-15309.0498" gradientTransform="matrix(-0.7071 0.7071 -0.7071 -0.7071 -10993.2061 -10568.9111)">
			<stop  offset="0" style="stop-color:#28B9C1"/>
			<stop  offset="1" style="stop-color:#2CA9DA"/>
		</linearGradient>
		<path fill="url(#SVGID_16_)" d="M71.968,17.828l1.989-1.987h-2.815c-0.321,0-0.613,0.129-0.825,0.341
			c-0.026,0.026-0.053,0.056-0.076,0.086c-0.004,0.002-0.006,0.007-0.008,0.012c-0.023,0.026-0.044,0.054-0.062,0.082
			c-0.003,0.006-0.007,0.012-0.01,0.018c-0.018,0.028-0.033,0.054-0.047,0.081c-0.005,0.007-0.007,0.013-0.012,0.02
			c-0.015,0.027-0.027,0.057-0.039,0.084c-0.002,0.006-0.003,0.012-0.006,0.018c-0.013,0.028-0.022,0.061-0.03,0.091
			c-0.004,0.007-0.005,0.011-0.006,0.016c-0.008,0.031-0.018,0.062-0.021,0.094c-0.003,0.008-0.003,0.016-0.004,0.023
			c-0.007,0.029-0.012,0.059-0.015,0.089c-0.004,0.034-0.005,0.072-0.005,0.108c0,0.003-0.001,0.004-0.001,0.007
			c0.001,0.038,0.002,0.077,0.006,0.113c0.001,0.01,0.003,0.017,0.004,0.025c0.004,0.031,0.009,0.062,0.015,0.091
			c0.002,0.007,0.003,0.015,0.007,0.022c0.005,0.031,0.012,0.061,0.022,0.089c0.001,0.005,0.002,0.011,0.005,0.015
			c0.104,0.322,0.343,0.583,0.654,0.716h0.001c0.03,0.014,0.061,0.025,0.092,0.034c0.007,0.003,0.013,0.005,0.019,0.006
			c0.027,0.01,0.056,0.017,0.084,0.023c0.009,0.002,0.02,0.004,0.028,0.005c0.028,0.006,0.056,0.01,0.083,0.013
			c0.011,0.003,0.021,0.005,0.032,0.006c0.032,0.003,0.066,0.004,0.1,0.005C71.431,18.175,71.735,18.061,71.968,17.828z"/>
	</g>
</g>
<g>
	<linearGradient id="SVGID_17_" gradientUnits="userSpaceOnUse" x1="86.209" y1="11.2217" x2="100.1094" y2="11.2217">
		<stop  offset="0" style="stop-color:#28C9C1"/>
		<stop  offset="1" style="stop-color:#2CB9DA"/>
	</linearGradient>
	<path fill="url(#SVGID_17_)" d="M100.108,5.395c-0.001-0.022-0.002-0.045-0.004-0.066s-0.007-0.042-0.01-0.062
		c-0.002-0.018-0.005-0.034-0.007-0.049c-0.005-0.023-0.011-0.046-0.017-0.069c-0.003-0.013-0.007-0.028-0.01-0.041
		c-0.006-0.022-0.014-0.042-0.021-0.065c-0.005-0.015-0.011-0.029-0.017-0.043c-0.007-0.02-0.016-0.037-0.023-0.054
		c-0.007-0.018-0.018-0.036-0.025-0.053c-0.008-0.013-0.015-0.027-0.021-0.039c-0.013-0.021-0.024-0.041-0.038-0.061
		c-0.005-0.009-0.013-0.017-0.019-0.026c-0.016-0.023-0.032-0.045-0.05-0.067c-0.004-0.006-0.01-0.011-0.015-0.016
		c-0.019-0.023-0.04-0.047-0.062-0.068c-0.003-0.003-0.008-0.007-0.013-0.011c-0.021-0.023-0.046-0.044-0.07-0.064
		c-0.005-0.004-0.01-0.009-0.017-0.013c-0.022-0.02-0.048-0.038-0.073-0.054c-0.009-0.008-0.02-0.013-0.028-0.019
		c-0.02-0.013-0.04-0.025-0.06-0.036c-0.002-0.001-0.006-0.003-0.009-0.004c-0.013-0.007-0.026-0.013-0.039-0.021
		c-0.021-0.01-0.041-0.021-0.064-0.03c-0.006-0.001-0.01-0.004-0.016-0.005c-0.104-0.042-0.211-0.07-0.318-0.081
		c-0.004,0-0.006,0-0.009,0c-0.035-0.003-0.07-0.006-0.106-0.006c-0.003,0-0.004,0-0.005,0c-0.019,0-0.034,0.002-0.053,0.002
		c-0.018,0.001-0.035,0.001-0.054,0.003c-0.031,0.003-0.062,0.007-0.092,0.012c-0.007,0.002-0.013,0.002-0.017,0.003
		c-0.149,0.028-0.289,0.085-0.412,0.164l0,0c-0.032,0.02-0.061,0.041-0.09,0.064c-0.002,0-0.003,0.001-0.004,0.003
		c-0.027,0.022-0.056,0.045-0.082,0.07c-0.002,0.001-0.003,0.002-0.005,0.004c-0.026,0.026-0.052,0.053-0.077,0.082L98.057,4.68
		c-0.066,0.08-0.124,0.167-0.169,0.263l-4.729,9.458l-4.729-9.457c-0.045-0.097-0.102-0.184-0.169-0.264c0,0,0,0-0.002-0.001
		c-0.023-0.028-0.051-0.056-0.077-0.082c-0.003-0.001-0.004-0.002-0.005-0.004c-0.026-0.025-0.054-0.048-0.082-0.072
		c-0.002,0-0.003-0.001-0.004-0.002c-0.145-0.112-0.314-0.192-0.504-0.228c-0.003-0.001-0.008-0.001-0.014-0.003
		c-0.03-0.004-0.062-0.009-0.094-0.012c-0.017-0.002-0.035-0.002-0.051-0.003c-0.02,0-0.037-0.002-0.056-0.002
		c-0.001,0-0.003,0-0.004,0c-0.036,0-0.072,0.002-0.106,0.006c-0.003,0-0.006,0-0.01,0c-0.108,0.011-0.219,0.04-0.323,0.082
		c-0.004,0.002-0.007,0.003-0.01,0.004c-0.022,0.01-0.044,0.021-0.067,0.032c-0.013,0.006-0.025,0.012-0.036,0.018
		c-0.003,0.002-0.007,0.004-0.01,0.005c-0.021,0.011-0.04,0.024-0.061,0.037c-0.009,0.006-0.019,0.011-0.027,0.018
		c-0.026,0.017-0.051,0.036-0.074,0.056c-0.005,0.003-0.01,0.006-0.014,0.011c-0.026,0.021-0.05,0.042-0.073,0.066
		c-0.004,0.003-0.007,0.006-0.011,0.008c-0.021,0.023-0.043,0.046-0.063,0.071C86.48,4.69,86.476,4.694,86.473,4.7
		c-0.019,0.022-0.035,0.043-0.052,0.067c-0.006,0.009-0.012,0.017-0.017,0.026c-0.015,0.02-0.026,0.041-0.038,0.061
		c-0.008,0.013-0.015,0.026-0.023,0.039c-0.008,0.017-0.016,0.036-0.024,0.053c-0.007,0.017-0.016,0.036-0.023,0.053
		c-0.007,0.015-0.012,0.03-0.019,0.045c-0.007,0.021-0.014,0.041-0.021,0.063c-0.003,0.013-0.007,0.028-0.01,0.041
		c-0.006,0.024-0.012,0.045-0.017,0.069c-0.002,0.016-0.004,0.032-0.007,0.049c-0.002,0.02-0.007,0.041-0.009,0.062
		s-0.002,0.044-0.003,0.066c0,0.014-0.002,0.027-0.002,0.043v11.564c0,0.646,0.522,1.17,1.165,1.17c0.645,0,1.166-0.523,1.166-1.17
		v-6.627l3.572,7.144c0.006,0.01,0.01,0.02,0.015,0.028l0.013,0.024c0.006,0.011,0.013,0.021,0.019,0.031
		c0.01,0.017,0.021,0.033,0.03,0.049c0.011,0.017,0.023,0.033,0.036,0.05c0.01,0.013,0.021,0.027,0.03,0.04
		c0.016,0.018,0.028,0.034,0.044,0.051c0.012,0.012,0.021,0.022,0.033,0.034c0.016,0.016,0.033,0.033,0.051,0.049
		c0.01,0.009,0.021,0.019,0.032,0.026c0.019,0.018,0.039,0.032,0.06,0.047c0.011,0.009,0.02,0.016,0.031,0.022
		c0.023,0.016,0.046,0.029,0.068,0.042c0.006,0.005,0.013,0.009,0.02,0.013c0.004,0.002,0.008,0.003,0.013,0.006
		c0.023,0.013,0.046,0.022,0.069,0.034c0.012,0.005,0.024,0.012,0.038,0.019c0.021,0.008,0.042,0.015,0.06,0.021
		c0.018,0.006,0.034,0.012,0.052,0.019c0.018,0.004,0.035,0.008,0.052,0.011c0.02,0.006,0.04,0.012,0.06,0.016
		c0.016,0.002,0.033,0.004,0.048,0.007c0.021,0.003,0.042,0.008,0.062,0.009c0.018,0.002,0.036,0.002,0.053,0.004
		c0.02,0.001,0.04,0.002,0.06,0.002s0.039-0.001,0.06-0.002c0.018-0.002,0.034-0.002,0.052-0.004
		c0.021-0.001,0.043-0.006,0.064-0.009c0.016-0.003,0.03-0.005,0.047-0.007c0.019-0.004,0.041-0.01,0.061-0.016
		c0.017-0.003,0.034-0.007,0.05-0.011c0.018-0.007,0.034-0.013,0.053-0.019c0.02-0.007,0.039-0.014,0.059-0.021
		c0.013-0.007,0.026-0.014,0.039-0.019c0.025-0.012,0.047-0.021,0.069-0.034c0.004-0.003,0.008-0.004,0.012-0.006
		c0.008-0.004,0.014-0.008,0.02-0.013c0.023-0.013,0.047-0.026,0.068-0.042c0.012-0.007,0.021-0.014,0.031-0.022
		c0.021-0.015,0.042-0.029,0.062-0.047c0.011-0.008,0.021-0.018,0.031-0.026c0.017-0.016,0.034-0.033,0.051-0.049
		c0.012-0.012,0.023-0.022,0.032-0.034c0.016-0.017,0.03-0.033,0.044-0.051c0.012-0.013,0.021-0.027,0.032-0.04
		c0.013-0.017,0.023-0.033,0.035-0.05c0.011-0.016,0.02-0.032,0.029-0.049c0.006-0.01,0.013-0.021,0.02-0.031l0.012-0.024
		c0.005-0.009,0.011-0.019,0.015-0.028l3.572-7.144v6.627c0,0.646,0.522,1.17,1.166,1.17c0.645,0,1.166-0.523,1.166-1.17V5.438
		C100.109,5.422,100.108,5.409,100.108,5.395z"/>
	<g>
		
			<linearGradient id="SVGID_18_" gradientUnits="userSpaceOnUse" x1="-10534.6465" y1="-9731.666" x2="-10519.3945" y2="-9731.666" gradientTransform="matrix(-0.4847 -0.8747 0.8747 -0.4847 3499.7922 -13913.6455)">
			<stop  offset="0" style="stop-color:#28B9C1"/>
			<stop  offset="1" style="stop-color:#2CA9DA"/>
		</linearGradient>
		<path fill="url(#SVGID_18_)" d="M88.431,4.944l-0.035-0.069c-0.039-0.072-0.085-0.136-0.134-0.195c0,0,0,0-0.002,0
			c-0.023-0.029-0.051-0.057-0.077-0.083c-0.003-0.001-0.004-0.002-0.005-0.004c-0.026-0.025-0.054-0.048-0.082-0.072
			c-0.002,0-0.003-0.001-0.004-0.002c-0.147-0.115-0.32-0.193-0.504-0.228c-0.003-0.001-0.008-0.001-0.014-0.003
			c-0.03-0.004-0.062-0.009-0.094-0.012c-0.017-0.002-0.035-0.002-0.051-0.002c-0.021-0.001-0.04-0.003-0.06-0.003
			c-0.036,0.001-0.072,0.002-0.106,0.006c-0.003,0-0.006,0-0.01,0c-0.113,0.012-0.222,0.041-0.323,0.082
			c-0.004,0.002-0.007,0.003-0.01,0.004c-0.022,0.01-0.044,0.021-0.067,0.032c-0.013,0.006-0.025,0.012-0.036,0.019
			c-0.024,0.013-0.046,0.027-0.07,0.042c-0.009,0.006-0.019,0.011-0.027,0.018c-0.026,0.017-0.051,0.036-0.074,0.056
			c-0.005,0.003-0.01,0.007-0.014,0.011c-0.026,0.021-0.05,0.042-0.073,0.066c-0.004,0.003-0.007,0.006-0.011,0.008
			c-0.021,0.023-0.043,0.046-0.063,0.071C86.48,4.69,86.476,4.694,86.473,4.7c-0.019,0.022-0.034,0.043-0.052,0.067
			c-0.006,0.009-0.012,0.017-0.017,0.026c-0.015,0.02-0.026,0.041-0.038,0.061c-0.008,0.013-0.015,0.026-0.023,0.039
			c-0.008,0.017-0.016,0.036-0.024,0.053c-0.007,0.018-0.016,0.036-0.023,0.053c-0.007,0.015-0.012,0.03-0.019,0.045
			c-0.007,0.021-0.014,0.041-0.021,0.063c-0.003,0.013-0.007,0.028-0.01,0.041c-0.006,0.024-0.012,0.045-0.017,0.069
			c-0.002,0.016-0.004,0.032-0.007,0.049c-0.002,0.02-0.007,0.041-0.009,0.062c-0.001,0.021-0.002,0.044-0.003,0.067
			c-0.008,0.205,0.037,0.416,0.145,0.61l2.185,4.369V5.438C88.54,5.261,88.5,5.093,88.431,4.944z"/>
		
			<linearGradient id="SVGID_19_" gradientUnits="userSpaceOnUse" x1="-8110.2578" y1="-14106.4707" x2="-8095.0044" y2="-14106.4707" gradientTransform="matrix(0.4847 -0.8747 -0.8747 -0.4847 -8315.1318 -13913.6455)">
			<stop  offset="0" style="stop-color:#28B9C1"/>
			<stop  offset="1" style="stop-color:#2CA9DA"/>
		</linearGradient>
		<path fill="url(#SVGID_19_)" d="M100.108,5.396c-0.001-0.023-0.002-0.046-0.004-0.067s-0.007-0.042-0.01-0.062
			c-0.002-0.018-0.005-0.034-0.007-0.049c-0.005-0.023-0.011-0.045-0.017-0.069c-0.003-0.013-0.007-0.028-0.01-0.041
			c-0.006-0.022-0.014-0.042-0.021-0.063c-0.005-0.015-0.011-0.031-0.017-0.044c-0.007-0.018-0.016-0.037-0.023-0.054
			c-0.007-0.018-0.018-0.036-0.025-0.053c-0.008-0.013-0.015-0.026-0.021-0.039c-0.013-0.021-0.024-0.041-0.038-0.061
			c-0.005-0.009-0.013-0.017-0.019-0.026c-0.016-0.023-0.032-0.046-0.05-0.067c-0.004-0.006-0.01-0.011-0.015-0.016
			c-0.019-0.023-0.04-0.047-0.062-0.068c-0.003-0.003-0.008-0.007-0.013-0.011c-0.021-0.023-0.046-0.044-0.07-0.064
			c-0.005-0.004-0.01-0.009-0.017-0.013c-0.022-0.02-0.048-0.038-0.073-0.054c-0.009-0.007-0.02-0.013-0.028-0.019
			c-0.021-0.014-0.045-0.028-0.068-0.041c-0.013-0.007-0.026-0.013-0.039-0.021c-0.021-0.01-0.041-0.021-0.064-0.03
			c-0.006-0.001-0.01-0.004-0.016-0.005c-0.101-0.041-0.207-0.069-0.318-0.081c-0.004,0-0.006,0-0.009,0
			c-0.035-0.003-0.07-0.005-0.106-0.006c-0.019,0-0.038,0.002-0.058,0.003c-0.018,0-0.035,0-0.054,0.002
			c-0.031,0.003-0.062,0.007-0.092,0.012c-0.007,0.002-0.013,0.002-0.017,0.003c-0.146,0.028-0.285,0.083-0.412,0.164l0,0
			c-0.032,0.02-0.061,0.041-0.09,0.064c-0.002,0.001-0.003,0.002-0.004,0.003c-0.027,0.021-0.056,0.045-0.082,0.07
			c-0.002,0.001-0.003,0.003-0.005,0.004c-0.026,0.026-0.052,0.053-0.077,0.082L98.057,4.68c-0.05,0.06-0.094,0.125-0.134,0.195
			l-0.035,0.068c-0.07,0.15-0.11,0.316-0.11,0.495v4.937l2.185-4.369C100.069,5.812,100.115,5.601,100.108,5.396z"/>
		
			<linearGradient id="SVGID_20_" gradientUnits="userSpaceOnUse" x1="-8110.2583" y1="-14106.8652" x2="-8095.002" y2="-14106.8652" gradientTransform="matrix(0.4847 -0.8747 -0.8747 -0.4847 -8315.1318 -13913.6455)">
			<stop  offset="0" style="stop-color:#28B9C1"/>
			<stop  offset="1" style="stop-color:#2CA9DA"/>
		</linearGradient>
		<path fill="url(#SVGID_20_)" d="M94.179,16.44l-1.02-2.039l-1.02,2.039c-0.192,0.347-0.188,0.748-0.027,1.078l0.015,0.028
			c0.01,0.02,0.021,0.038,0.031,0.056c0.01,0.017,0.021,0.033,0.03,0.049c0.011,0.017,0.023,0.033,0.036,0.05
			c0.01,0.013,0.021,0.027,0.03,0.043c0.016,0.015,0.028,0.031,0.044,0.048c0.012,0.012,0.021,0.022,0.033,0.034
			c0.015,0.016,0.033,0.033,0.051,0.049c0.01,0.009,0.021,0.019,0.032,0.026c0.019,0.018,0.038,0.032,0.06,0.047
			c0.011,0.009,0.02,0.016,0.031,0.022c0.023,0.016,0.045,0.029,0.068,0.042c0.011,0.007,0.021,0.014,0.032,0.019
			c0.024,0.013,0.046,0.022,0.069,0.034c0.012,0.006,0.024,0.012,0.038,0.019c0.021,0.008,0.042,0.015,0.06,0.021
			c0.018,0.006,0.034,0.012,0.052,0.019c0.018,0.004,0.035,0.008,0.052,0.011c0.02,0.006,0.039,0.012,0.06,0.016
			c0.016,0.002,0.033,0.004,0.048,0.007c0.021,0.003,0.042,0.008,0.062,0.009c0.018,0.002,0.036,0.002,0.053,0.004
			c0.02,0.001,0.04,0.002,0.06,0.002s0.041-0.001,0.06-0.002c0.018-0.002,0.034-0.002,0.052-0.004
			c0.021-0.001,0.043-0.006,0.064-0.009c0.016-0.003,0.03-0.005,0.047-0.007c0.019-0.004,0.041-0.01,0.061-0.016
			c0.017-0.003,0.034-0.007,0.05-0.011c0.018-0.007,0.034-0.013,0.053-0.019c0.02-0.007,0.039-0.014,0.059-0.021
			c0.013-0.007,0.026-0.013,0.039-0.019c0.025-0.012,0.047-0.021,0.069-0.034c0.011-0.005,0.022-0.012,0.031-0.019
			c0.023-0.013,0.047-0.026,0.068-0.042c0.011-0.007,0.021-0.014,0.031-0.022c0.021-0.015,0.042-0.029,0.062-0.047
			c0.011-0.008,0.021-0.018,0.031-0.026c0.017-0.016,0.034-0.033,0.051-0.049c0.012-0.012,0.023-0.022,0.032-0.034
			c0.017-0.017,0.03-0.033,0.044-0.048c0.01-0.016,0.021-0.03,0.032-0.043c0.013-0.017,0.023-0.033,0.035-0.05
			c0.011-0.016,0.02-0.032,0.029-0.049c0.011-0.018,0.022-0.036,0.031-0.056l0.015-0.028C94.368,17.188,94.371,16.787,94.179,16.44z
			"/>
	</g>
</g>
<g>
	<linearGradient id="SVGID_21_" gradientUnits="userSpaceOnUse" x1="102.4404" y1="11.2217" x2="116.3408" y2="11.2217">
		<stop  offset="0" style="stop-color:#28C9C1"/>
		<stop  offset="1" style="stop-color:#2CB9DA"/>
	</linearGradient>
	<path fill="url(#SVGID_21_)" d="M115.176,12.387c0.642,0,1.165-0.522,1.165-1.165c0-0.645-0.523-1.167-1.165-1.167h-10.402V6.604
		h10.402c0.642,0,1.165-0.522,1.165-1.166c0-0.645-0.523-1.167-1.165-1.167H103.61h-0.001c-0.003,0-0.003,0-0.004,0
		c-0.642,0-1.165,0.522-1.165,1.167v11.564c0,0.001,0,0.001,0,0.003v0.001c0,0.318,0.127,0.604,0.334,0.814
		c0.003,0.002,0.005,0.007,0.007,0.01c0.009,0.008,0.018,0.016,0.025,0.022c0.21,0.197,0.49,0.319,0.799,0.319
		c0.001,0,0.001,0,0.004,0h0.001h11.565c0.642,0,1.165-0.521,1.165-1.166c0-0.644-0.523-1.165-1.165-1.165h-10.402v-3.454H115.176z"
		/>
	<g>
		
			<linearGradient id="SVGID_22_" gradientUnits="userSpaceOnUse" x1="-5436.8403" y1="-15610.6719" x2="-5422.9346" y2="-15610.6719" gradientTransform="matrix(-1 0 0 -1 -5320.4941 -15605.2344)">
			<stop  offset="0" style="stop-color:#28B9C1"/>
			<stop  offset="1" style="stop-color:#2CA9DA"/>
		</linearGradient>
		<path fill="url(#SVGID_22_)" d="M103.61,6.604h1.163V5.438c0-0.644-0.522-1.166-1.164-1.167c-0.646,0.001-1.169,0.523-1.169,1.167
			C102.44,6.082,102.965,6.604,103.61,6.604z"/>
		
			<linearGradient id="SVGID_23_" gradientUnits="userSpaceOnUse" x1="-5436.8403" y1="-15616.4561" x2="-5422.9346" y2="-15616.4561" gradientTransform="matrix(-1 0 0 -1 -5320.4941 -15605.2344)">
			<stop  offset="0" style="stop-color:#28B9C1"/>
			<stop  offset="1" style="stop-color:#2CA9DA"/>
		</linearGradient>
		<path fill="url(#SVGID_23_)" d="M103.61,12.387h1.163v-2.332h-1.163c-0.646,0-1.17,0.522-1.17,1.167
			C102.44,11.865,102.965,12.387,103.61,12.387z"/>
		
			<linearGradient id="SVGID_24_" gradientUnits="userSpaceOnUse" x1="-5436.8408" y1="-15622.2402" x2="-5422.9346" y2="-15622.2402" gradientTransform="matrix(-1 0 0 -1 -5320.4941 -15605.2344)">
			<stop  offset="0" style="stop-color:#28B9C1"/>
			<stop  offset="1" style="stop-color:#2CA9DA"/>
		</linearGradient>
		<path fill="url(#SVGID_24_)" d="M102.44,17.005c0,0.317,0.127,0.605,0.334,0.815c0.003,0.002,0.005,0.007,0.007,0.01
			c0.009,0.008,0.018,0.016,0.025,0.022c0.21,0.197,0.491,0.319,0.803,0.319c0.642-0.001,1.164-0.524,1.164-1.17v-1.161h-1.163
			C102.965,15.841,102.441,16.361,102.44,17.005z"/>
	</g>
</g>
</svg>
