<?xml version="1.0" encoding="utf-8"?>
<!-- Generator: Adobe Illustrator 16.0.0, SVG Export Plug-In . SVG Version: 6.00 Build 0)  -->
<!DOCTYPE svg PUBLIC "-//W3C//DTD SVG 1.1//EN" "http://www.w3.org/Graphics/SVG/1.1/DTD/svg11.dtd">
<svg version="1.1" id="레이어_1" xmlns="http://www.w3.org/2000/svg" xmlns:xlink="http://www.w3.org/1999/xlink" x="0px"
	 y="0px" width="293px" height="193px" viewBox="0 0 293 193" enable-background="new 0 0 293 193" xml:space="preserve">
<g>
	<path fill="#D74054" d="M273.718,187.178c-1.61,0-3.059-1.125-3.404-2.766c-0.397-1.883,0.807-3.73,2.689-4.127
		c1.688-0.371,3.505-1.387,3.671-1.902c-0.002,0-0.018-1.043-2.48-3.23c-13.921-12.375-2.315-44.754-0.946-48.406
		c0.675-1.797,2.682-2.711,4.482-2.037c1.8,0.674,2.714,2.682,2.039,4.482c-3.247,8.682-9.75,32.93-0.946,40.756
		c3.917,3.48,5.46,6.922,4.583,10.225c-1.349,5.08-7.704,6.662-8.965,6.93C274.198,187.152,273.955,187.178,273.718,187.178z"/>
	<path fill="#45A39E" d="M70.093,191.355c-0.689,0-1.316-0.033-1.843-0.086c-1.531-0.154-2.647-1.52-2.494-3.049
		c0.154-1.533,1.525-2.65,3.051-2.496c2.622,0.26,5.838-0.334,6.88-1.275c0.158-0.143,0.158-0.193,0.158-0.229
		c-0.352-0.539-2.551-1.055-3.732-1.334c-3.108-0.729-8.893-2.084-7.958-7.891c0.334-2.074,1.18-3.861,1.999-5.59
		c0.412-0.867,0.8-1.689,1.095-2.494c2.2-5.998,0.182-13.24-5.268-18.896c-1.067-1.109-1.035-2.873,0.073-3.941
		c1.108-1.066,2.873-1.033,3.939,0.074c6.942,7.205,9.427,16.664,6.488,24.682c-0.382,1.041-0.844,2.018-1.292,2.963
		c-0.682,1.438-1.325,2.797-1.533,4.088c-0.037,0.227-0.015,0.316-0.015,0.318c0.345,0.465,2.557,0.984,3.744,1.264
		c3.199,0.75,8.033,1.883,8.033,6.758c0,1.674-0.689,3.182-1.993,4.361C77.008,190.768,72.993,191.355,70.093,191.355z"/>
	<path fill="#45A39E" d="M85.263,148.867c-0.798,0-1.591-0.342-2.142-1.002l-3.863-4.635c-1.45-1.74-2.073-4.021-1.707-6.256
		c0.365-2.234,1.681-4.199,3.61-5.387l9.069-5.58c0.603-0.373,0.987-0.99,1.053-1.695c0.065-0.703-0.197-1.381-0.721-1.859
		l-11.718-10.652c-1.139-1.033-1.223-2.797-0.188-3.936c1.036-1.137,2.797-1.223,3.936-0.186l11.718,10.652
		c1.833,1.664,2.751,4.035,2.521,6.5c-0.23,2.465-1.571,4.623-3.68,5.92l-9.068,5.58c-0.755,0.467-0.971,1.166-1.033,1.541
		c-0.061,0.377-0.08,1.107,0.488,1.791l3.862,4.635c0.986,1.182,0.826,2.938-0.356,3.922
		C86.524,148.656,85.892,148.867,85.263,148.867z"/>
	<linearGradient id="SVGID_1_" gradientUnits="userSpaceOnUse" x1="25.1265" y1="139.7314" x2="78.6916" y2="102.1402">
		<stop  offset="0" style="stop-color:#45A39E"/>
		<stop  offset="0.3279" style="stop-color:#978D83"/>
		<stop  offset="0.645" style="stop-color:#BF6C69"/>
		<stop  offset="0.8772" style="stop-color:#D14E59"/>
		<stop  offset="1" style="stop-color:#D74054"/>
	</linearGradient>
	<circle fill="url(#SVGID_1_)" cx="51.909" cy="120.936" r="32.717"/>
	<path fill="#1C2D58" d="M51.91,88.218c-7.984,0-15.294,2.867-20.974,7.619c8.454,19.858,28.142,33.784,51.087,33.784
		c0.479,0,0.943-0.059,1.419-0.072c0.75-2.748,1.184-5.627,1.184-8.613C84.626,102.867,69.979,88.218,51.91,88.218z"/>
	<linearGradient id="SVGID_2_" gradientUnits="userSpaceOnUse" x1="34.1177" y1="100.9102" x2="119.6937" y2="40.8542">
		<stop  offset="0" style="stop-color:#45A39E"/>
		<stop  offset="0.3279" style="stop-color:#978D83"/>
		<stop  offset="0.645" style="stop-color:#BF6C69"/>
		<stop  offset="0.8772" style="stop-color:#D14E59"/>
		<stop  offset="1" style="stop-color:#D74054"/>
	</linearGradient>
	<circle fill="url(#SVGID_2_)" cx="76.905" cy="70.881" r="52.269"/>
	<g>
		<circle fill="#FFFFFF" cx="108.163" cy="59.793" r="10.6"/>
		<path fill="#1C2D58" d="M105.527,70.061c-5.422-1.393-8.772-6.736-7.782-12.16c-0.08,0.239-0.162,0.477-0.226,0.724
			c-1.456,5.67,1.961,11.447,7.632,12.902c5.67,1.455,11.447-1.961,12.902-7.632c0.064-0.248,0.106-0.495,0.151-0.743
			C116.46,68.382,110.95,71.452,105.527,70.061z"/>
		<circle fill="#1C2D58" cx="108.163" cy="59.793" r="6.057"/>
		<g opacity="0.14">
			<path fill="#1C2D58" d="M100.675,67.281c1.299,1.301,2.943,2.29,4.853,2.78c5.67,1.455,11.447-1.962,12.902-7.632
				c0.966-3.761-0.221-7.561-2.779-10.123L100.675,67.281z"/>
		</g>
	</g>
	<g>
		<circle fill="#FFFFFF" cx="67.215" cy="59.851" r="10.6"/>
		<path fill="#1C2D58" d="M64.58,70.118c-5.422-1.393-8.772-6.737-7.783-12.16c-0.08,0.239-0.162,0.477-0.226,0.724
			c-1.455,5.67,1.962,11.447,7.632,12.902s11.447-1.961,12.902-7.632c0.063-0.248,0.106-0.495,0.151-0.743
			C75.512,68.439,70.002,71.509,64.58,70.118z"/>
		<circle fill="#1C2D58" cx="67.216" cy="59.851" r="6.057"/>
		<g opacity="0.14">
			<path fill="#1C2D58" d="M59.728,67.339c1.298,1.301,2.943,2.289,4.853,2.779c5.67,1.455,11.447-1.962,12.902-7.632
				c0.965-3.761-0.222-7.561-2.779-10.123L59.728,67.339z"/>
		</g>
	</g>
	<path fill="#1C2D58" d="M80.58,98.674c0.089-0.843,0.138-1.696,0.138-2.562c0-13.381-10.847-24.228-24.228-24.228
		c-0.866,0-1.72,0.049-2.563,0.138C68.048,73.321,79.281,84.554,80.58,98.674z"/>
	<g>
		<path fill="#1C2D58" d="M108.693,84.792c-14.257-14.258-33.414-8.167-34.224-7.901c-0.734,0.242-1.372,0.635-1.908,1.124
			c2.677,2.379,4.84,5.324,6.255,8.671c3.325-0.792,14.214-2.564,22.383,5.601c1.035,1.035,2.391,1.552,3.747,1.552
			s2.712-0.518,3.747-1.552C110.764,90.217,110.764,86.862,108.693,84.792z"/>
	</g>
	<path fill="#040000" d="M105.481,88.003c-5.366-5.366-12.178-8.086-20.246-8.086c-5.337,0-9.195,1.24-9.346,1.29
		c-0.097,0.031-0.162,0.083-0.226,0.133c0.314,0.407,0.634,0.809,0.923,1.236c0.893-0.27,4.17-1.158,8.575-1.158
		c7.581,0,14.237,2.648,19.248,7.656c0.185,0.184,0.393,0.223,0.537,0.223s0.352-0.039,0.535-0.221
		C105.777,88.78,105.777,88.3,105.481,88.003z"/>
	<g>
		<path fill="#1C2D58" d="M107.017,95.97l-0.203,0.021c-0.079,0.01-0.157,0.021-0.235,0.021c-1.464,0-2.842-0.571-3.878-1.605
			c-5.973-5.973-13.233-7.227-18.273-7.227c-1.452,0-2.766,0.105-3.909,0.245c0.283,0.749,0.527,1.515,0.735,2.296
			c1.102-0.156,2.438-0.281,3.922-0.281c4.335,0,10.579,1.075,15.703,6.197c1.087,1.086,2.532,1.685,4.068,1.685
			c0.775,0,1.544-0.162,2.286-0.483L107.017,95.97z"/>
	</g>
	<path opacity="0.13" fill="#FFFFFF" d="M76.175,98.262c-0.769,0-1.393-0.624-1.393-1.394c0-1.539-0.184-3.069-0.545-4.547
		c-0.183-0.747,0.274-1.501,1.021-1.684c0.739-0.182,1.5,0.273,1.685,1.022c0.416,1.694,0.625,3.447,0.625,5.209
		C77.568,97.638,76.945,98.262,76.175,98.262z"/>
	<path opacity="0.13" fill="#FFFFFF" d="M73.926,88.926c-0.505,0-0.993-0.275-1.24-0.756c-3.01-5.853-8.944-9.798-15.487-10.295
		c-0.767-0.059-1.342-0.728-1.284-1.495c0.059-0.767,0.725-1.34,1.495-1.284c7.502,0.57,14.305,5.092,17.753,11.8
		c0.353,0.684,0.083,1.524-0.602,1.875C74.358,88.877,74.14,88.926,73.926,88.926z"/>
	<path opacity="0.13" fill="#FFFFFF" d="M114.704,44.525c-0.488,0-0.962-0.256-1.217-0.712
		C107.625,33.347,96.56,26.547,84.61,26.067c-0.768-0.03-1.367-0.679-1.335-1.447c0.03-0.768,0.654-1.353,1.447-1.336
		c12.911,0.519,24.865,7.863,31.196,19.167c0.376,0.671,0.137,1.521-0.535,1.896C115.167,44.468,114.934,44.525,114.704,44.525z"/>
	<path opacity="0.13" fill="#1C2D58" d="M56.709,114.553c-0.145,0-0.292-0.021-0.437-0.072
		c-12.269-4.057-21.734-14.412-24.704-27.022c-0.177-0.749,0.288-1.5,1.036-1.675c0.746-0.183,1.499,0.287,1.675,1.036
		c2.75,11.674,11.512,21.261,22.868,25.019c0.73,0.24,1.127,1.029,0.885,1.76C57.839,114.182,57.294,114.553,56.709,114.553z"/>
	<path fill="#45A39E" d="M35.24,191.355c-2.899,0-6.915-0.588-9.331-2.773c-1.303-1.18-1.992-2.688-1.992-4.361
		c0-4.875,4.833-6.008,8.033-6.758c1.182-0.277,3.378-0.793,3.755-1.295c-0.005-0.002,0.005-0.096-0.026-0.287
		c-0.208-1.289-0.852-2.65-1.532-4.088c-0.448-0.943-0.91-1.92-1.292-2.963c-2.94-8.018-0.455-17.477,6.487-24.682
		c1.068-1.109,2.831-1.143,3.939-0.074c1.108,1.068,1.141,2.832,0.074,3.941c-5.45,5.656-7.469,12.898-5.269,18.896
		c0.295,0.805,0.684,1.627,1.096,2.496c0.819,1.727,1.664,3.514,1.999,5.586c0.935,5.809-4.85,7.164-7.959,7.893
		c-1.181,0.279-3.381,0.795-3.746,1.295c0.014,0.074,0.014,0.125,0.172,0.268c1.042,0.941,4.258,1.537,6.879,1.275
		c1.535-0.152,2.897,0.963,3.051,2.496c0.152,1.529-0.963,2.895-2.495,3.049C36.556,191.322,35.93,191.355,35.24,191.355z"/>
	<path fill="#45A39E" d="M20.147,147.354c-0.629,0-1.262-0.213-1.782-0.646c-1.183-0.984-1.342-2.74-0.356-3.924l3.863-4.635
		c0.567-0.682,0.549-1.414,0.488-1.791c-0.062-0.375-0.277-1.074-1.033-1.539l-9.068-5.58c-2.109-1.299-3.449-3.455-3.68-5.922
		c-0.23-2.465,0.688-4.834,2.521-6.5l11.719-10.652c1.139-1.035,2.902-0.949,3.936,0.188c1.035,1.139,0.951,2.902-0.188,3.936
		l-11.719,10.652c-0.523,0.477-0.786,1.154-0.72,1.859c0.065,0.705,0.449,1.322,1.053,1.693l9.068,5.58
		c1.928,1.188,3.245,3.15,3.611,5.385c0.366,2.236-0.256,4.518-1.706,6.258l-3.864,4.637
		C21.737,147.012,20.945,147.354,20.147,147.354z"/>
	<path fill="#45A39E" d="M111.699,35.154c-0.508,0-0.843-0.039-0.937-0.05c-1.525-0.2-2.601-1.597-2.402-3.124
		c0.197-1.515,1.585-2.582,3.09-2.407c0.909,0.088,5.425,0.14,6.396-7.315c0.199-1.527,1.591-2.602,3.123-2.403
		c1.527,0.199,2.602,1.597,2.403,3.123c-0.885,6.79-4.187,9.751-6.8,11.041C114.623,34.981,112.774,35.154,111.699,35.154z"/>
	<path fill="#45A39E" d="M126.29,48.216c-1.082,0-2.109-0.634-2.561-1.687c-0.379-0.834-2.587-4.77-9.534-1.882
		c-1.42,0.593-3.052-0.083-3.642-1.503c-0.591-1.421,0.083-3.051,1.503-3.642c9.971-4.145,15.353,1.364,16.805,4.857
		c0.591,1.421-0.082,3.052-1.503,3.642C127.009,48.147,126.646,48.216,126.29,48.216z"/>
	<path fill="#45A39E" d="M133.715,41.613c-0.59,0-1.186-0.187-1.691-0.573c-10.718-8.203-4.261-16.896-4.195-16.982
		c0.937-1.222,2.685-1.454,3.906-0.52c1.214,0.929,1.451,2.658,0.54,3.879c-0.532,0.745-2.836,4.627,3.136,9.198
		c1.222,0.935,1.455,2.684,0.52,3.906C135.38,41.237,134.553,41.613,133.715,41.613z"/>
	
		<linearGradient id="SVGID_3_" gradientUnits="userSpaceOnUse" x1="160.8564" y1="167.293" x2="313.9658" y2="167.293" gradientTransform="matrix(0.7071 0.7071 -0.7071 0.7071 169.5835 -199.5195)">
		<stop  offset="0" style="stop-color:#45A39E"/>
		<stop  offset="0.2994" style="stop-color:#4AA39D"/>
		<stop  offset="0.451" style="stop-color:#57A19A"/>
		<stop  offset="0.5695" style="stop-color:#6A9D95"/>
		<stop  offset="0.6708" style="stop-color:#7F988E"/>
		<stop  offset="0.7611" style="stop-color:#958E84"/>
		<stop  offset="0.8436" style="stop-color:#AC7F77"/>
		<stop  offset="0.9202" style="stop-color:#C16967"/>
		<stop  offset="0.9902" style="stop-color:#D54756"/>
		<stop  offset="1" style="stop-color:#D74054"/>
	</linearGradient>
	<path fill="url(#SVGID_3_)" d="M220.577,140.779l-55.544-55.544c-14.498-14.498-14.498-38.222,0-52.72l0,0
		c14.497-14.498,38.222-14.498,52.719,0l55.544,55.544c14.498,14.498,14.498,38.222,0,52.72l0,0
		C258.799,155.277,235.074,155.277,220.577,140.779z"/>
	<path opacity="0.13" fill="#FFFFFF" d="M160.705,68.865c-0.617,0-1.182-0.415-1.347-1.041c-3.093-11.823-0.08-23.74,8.058-31.879
		c2.294-2.294,4.922-4.206,7.812-5.683c0.684-0.35,1.524-0.08,1.874,0.606c0.35,0.685,0.079,1.524-0.606,1.874
		c-2.63,1.345-5.022,3.085-7.11,5.173c-7.431,7.431-10.172,18.349-7.331,29.205c0.194,0.744-0.252,1.505-0.995,1.7
		C160.94,68.851,160.822,68.865,160.705,68.865z"/>
	<path fill="#1C2D58" d="M210.781,33.952L166.47,78.264c-2.289,2.288-2.371,6.029-0.086,8.321c0.014,0.015,0.028,0.029,0.042,0.043
		l48.56,48.56l52.72-52.72l-48.56-48.56c-0.014-0.014-0.028-0.028-0.043-0.042C216.811,31.582,213.069,31.664,210.781,33.952z"/>
	<path fill="#1C2D58" d="M228.6,140.395l44.312-44.312c2.288-2.289,2.37-6.029,0.086-8.321c-0.014-0.014-0.028-0.028-0.043-0.042
		l-48.559-48.56l-52.72,52.72l48.56,48.559c0.014,0.016,0.028,0.029,0.042,0.043C222.571,142.766,226.312,142.684,228.6,140.395z"/>
	
		<linearGradient id="SVGID_4_" gradientUnits="userSpaceOnUse" x1="200.1318" y1="167.293" x2="274.6904" y2="167.293" gradientTransform="matrix(0.7071 0.7071 -0.7071 0.7071 169.5835 -199.5195)">
		<stop  offset="0" style="stop-color:#45A39E"/>
		<stop  offset="0.2994" style="stop-color:#4AA39D"/>
		<stop  offset="0.451" style="stop-color:#57A19A"/>
		<stop  offset="0.5695" style="stop-color:#6A9D95"/>
		<stop  offset="0.6708" style="stop-color:#7F988E"/>
		<stop  offset="0.7611" style="stop-color:#958E84"/>
		<stop  offset="0.8436" style="stop-color:#AC7F77"/>
		<stop  offset="0.9202" style="stop-color:#C16967"/>
		<stop  offset="0.9902" style="stop-color:#D54756"/>
		<stop  offset="1" style="stop-color:#D74054"/>
	</linearGradient>
	<path fill="url(#SVGID_4_)" d="M165.033,88.059l55.544-55.544c14.497-14.498,38.222-14.498,52.719,0l0,0
		c14.498,14.498,14.498,38.222,0,52.72l-55.544,55.544c-14.497,14.498-38.222,14.498-52.719,0l0,0
		C150.535,126.281,150.535,102.557,165.033,88.059z"/>
	<g>
		<circle fill="#FFFFFF" cx="185.229" cy="85.534" r="9.751"/>
		<path fill="#1C2D58" d="M184.877,95.28c-5.147-0.186-9.208-4.331-9.384-9.4c-0.025,0.23-0.053,0.46-0.061,0.695
			c-0.194,5.382,4.012,9.902,9.394,10.097c5.383,0.193,9.902-4.012,10.097-9.395c0.009-0.234-0.001-0.466-0.01-0.697
			C194.372,91.624,190.024,95.465,184.877,95.28z"/>
		<circle fill="#1C2D58" cx="185.229" cy="85.534" r="5.572"/>
		<g opacity="0.14">
			<path fill="#1C2D58" d="M179.97,93.734c1.422,0.915,3.095,1.479,4.907,1.545c5.382,0.194,9.902-4.012,10.097-9.395
				c0.128-3.569-1.685-6.751-4.486-8.552L179.97,93.734z"/>
		</g>
	</g>
	<circle fill="#1C2D58" cx="187.002" cy="100.457" r="8.707"/>
	<circle fill="#1C2D58" cx="227.401" cy="61.45" r="8.707"/>
	<g>
		<circle fill="#FFFFFF" cx="211.729" cy="59.012" r="9.751"/>
		<path fill="#1C2D58" d="M211.378,68.757c-5.146-0.186-9.208-4.331-9.384-9.399c-0.024,0.23-0.052,0.46-0.06,0.695
			c-0.195,5.382,4.012,9.902,9.394,10.097c5.382,0.195,9.902-4.012,10.097-9.394c0.008-0.235-0.002-0.466-0.01-0.697
			C220.874,65.101,216.525,68.943,211.378,68.757z"/>
		<circle fill="#1C2D58" cx="211.73" cy="59.012" r="5.572"/>
		<g opacity="0.14">
			<path fill="#1C2D58" d="M206.471,67.213c1.423,0.914,3.095,1.479,4.907,1.544c5.383,0.194,9.902-4.011,10.098-9.394
				c0.128-3.57-1.686-6.752-4.487-8.553L206.471,67.213z"/>
		</g>
	</g>
	<path fill="#1C2D58" d="M231.305,63.549c-2.309,0-4.179,1.871-4.179,4.179c0,0.007-0.131,0.791-0.769,1.431
		c-1.142,1.141-2.554,1.62-4.951,2.368c-3.49,1.089-7.837,2.445-12.592,7.201c-4.756,4.755-6.112,9.101-7.2,12.592
		c-0.749,2.397-1.228,3.809-2.368,4.95c-0.64,0.639-1.424,0.769-1.431,0.769c-2.309,0-4.18,1.871-4.18,4.181
		c0,2.309,1.871,4.178,4.18,4.178c0.422,0,4.214-0.09,7.341-3.217c2.651-2.65,3.6-5.689,4.437-8.371
		c0.942-3.019,1.832-5.872,5.132-9.172c3.3-3.299,6.153-4.189,9.172-5.132c2.681-0.837,5.719-1.785,8.371-4.438
		c3.127-3.126,3.217-6.918,3.217-7.34C235.484,65.42,233.613,63.549,231.305,63.549z"/>
	<path fill="#040000" d="M197.175,102.328c-0.386,0-0.697-0.312-0.697-0.697s0.312-0.697,0.697-0.697
		c0.018,0,2.142-0.039,3.893-1.789c1.803-1.803,2.464-3.921,3.23-6.375c1.025-3.29,2.189-7.019,6.339-11.168
		s7.879-5.312,11.168-6.339c2.453-0.766,4.573-1.426,6.375-3.229c1.749-1.75,1.789-3.875,1.789-3.896
		c0.003-0.385,0.362-0.71,0.699-0.692c0.384,0.002,0.694,0.312,0.694,0.695c0,0.109-0.025,2.707-2.197,4.878
		c-2.047,2.045-4.426,2.789-6.945,3.574c-3.138,0.979-6.691,2.088-10.598,5.995c-3.907,3.908-5.016,7.463-5.996,10.599
		c-0.785,2.52-1.527,4.898-3.573,6.946C199.879,102.303,197.283,102.328,197.175,102.328z"/>
	<path fill="#1C2D58" d="M216.028,86.994c0,0,3.94-3.941,7.881-3.941c3.939,0-2.442,6.383-3.94,7.881
		c-1.498,1.498-7.881,7.88-7.881,3.94C212.088,90.934,216.028,86.994,216.028,86.994z"/>
	<path fill="#D74054" d="M219.392,26.971c-1.248,0-2.495-0.476-3.447-1.428l-6.269-6.269c-1.905-1.904-1.905-4.991,0-6.896
		c1.904-1.903,4.989-1.903,6.895,0l2.821,2.821l2.821-2.821c1.904-1.903,4.99-1.903,6.895,0c1.904,1.905,1.904,4.992,0,6.896
		l-6.269,6.269C221.887,26.495,220.639,26.971,219.392,26.971z"/>
	<path fill="#D74054" d="M127.444,145.385c-0.585,0-1.179-0.148-1.724-0.459c-1.67-0.955-2.25-3.084-1.296-4.752
		c2.493-4.363,10.15-11.139,21.299-5.566c4.583,2.299,11.106-5.264,11.169-5.34c1.227-1.482,3.422-1.691,4.903-0.469
		c1.483,1.227,1.692,3.422,0.469,4.904c-3.682,4.459-11.966,10.98-19.657,7.135c-7.971-3.988-11.732,2.086-12.136,2.791
		C129.829,144.754,128.654,145.385,127.444,145.385z"/>
	<path fill="#D74054" d="M270.56,39.222c-1.002,0-1.998-0.431-2.687-1.265c-1.224-1.482-1.016-3.673,0.462-4.898l0,0
		c2.002-1.668,7.281-7.303,5.345-11.175c-5.572-11.147,1.204-18.806,5.566-21.298c1.668-0.955,3.796-0.376,4.752,1.296
		c0.954,1.67,0.374,3.797-1.296,4.751c-1.118,0.667-6.633,4.454-2.792,12.135c3.845,7.692-2.675,15.976-7.134,19.657
		C272.127,38.96,271.341,39.222,270.56,39.222z"/>
	<path fill="#D74054" d="M250.042,188.57c-0.25,0-0.503-0.027-0.758-0.084c-1.281-0.285-7.739-1.965-9.021-7.096
		c-0.826-3.303,0.763-6.699,4.723-10.094c7.419-6.359-0.662-20.537-0.743-20.682c-0.964-1.662-0.399-3.793,1.262-4.758
		c1.659-0.965,3.789-0.406,4.756,1.254c0.459,0.785,11.079,19.342-0.741,29.475c-2.434,2.086-2.498,3.121-2.498,3.129
		c0.193,0.564,2.206,1.623,3.772,1.973c1.879,0.418,3.062,2.277,2.646,4.154C253.079,187.465,251.639,188.57,250.042,188.57z"/>
	<path fill="#1C2D58" d="M267.876,84.387c-0.535,0-1.071-0.204-1.479-0.613c-0.815-0.817-0.815-2.14,0.002-2.955
		c15.844-15.822,9.189-31.441,8.897-32.099c-0.466-1.053,0.006-2.287,1.056-2.757c1.049-0.468,2.282-0.004,2.757,1.045
		c0.343,0.76,8.197,18.838-9.758,36.767C268.943,84.184,268.41,84.387,267.876,84.387z"/>
	<path opacity="0.13" fill="#FFFFFF" d="M160.989,125.482c-0.53,0-1.036-0.305-1.268-0.82c-0.083-0.182-8.003-18.396,9.612-35.988
		c0.544-0.543,1.427-0.544,1.972,0.001c0.543,0.544,0.543,1.426-0.002,1.97c-16.21,16.187-9.342,32.202-9.042,32.874
		c0.312,0.703,0,1.525-0.702,1.84C161.375,125.443,161.182,125.482,160.989,125.482z"/>
</g>
</svg>
