<?xml version="1.0" encoding="utf-8"?>
<!-- Generator: Adobe Illustrator 16.0.0, SVG Export Plug-In . SVG Version: 6.00 Build 0)  -->
<!DOCTYPE svg PUBLIC "-//W3C//DTD SVG 1.1//EN" "http://www.w3.org/Graphics/SVG/1.1/DTD/svg11.dtd">
<svg version="1.1" id="레이어_1" xmlns="http://www.w3.org/2000/svg" xmlns:xlink="http://www.w3.org/1999/xlink" x="0px"
	 y="0px" width="115.25px" height="24px" viewBox="0 0 115.25 24" enable-background="new 0 0 115.25 24" xml:space="preserve">
<g>
	<g>
		
			<linearGradient id="SVGID_1_" gradientUnits="userSpaceOnUse" x1="4747.9629" y1="-9213.9639" x2="4761.3232" y2="-9213.9639" gradientTransform="matrix(-4.371139e-08 1 -1 -4.371139e-08 -9149.7539 -4743.0356)">
			<stop  offset="0" style="stop-color:#28C9C1"/>
			<stop  offset="1" style="stop-color:#2CB9DA"/>
		</linearGradient>
		<path fill="url(#SVGID_1_)" d="M65.705,16.793L65.705,16.793L65.705,16.793V6.42l0,0c0-0.825-0.669-1.494-1.496-1.494
			c-0.824,0-1.493,0.669-1.493,1.494c0,0.001,0,0.002,0,0.003v10.367c0,0.001,0,0.001,0,0.002c0,0.825,0.669,1.494,1.493,1.494
			C65.036,18.287,65.705,17.618,65.705,16.793z"/>
		<linearGradient id="SVGID_2_" gradientUnits="userSpaceOnUse" x1="62.7158" y1="1.9644" x2="65.7051" y2="1.9644">
			<stop  offset="0" style="stop-color:#28C9C1"/>
			<stop  offset="1" style="stop-color:#2CB9DA"/>
		</linearGradient>
		<circle fill="url(#SVGID_2_)" cx="64.21" cy="1.964" r="1.495"/>
	</g>
	<g>
		<linearGradient id="SVGID_3_" gradientUnits="userSpaceOnUse" x1="68.6934" y1="11.6069" x2="82.0537" y2="11.6069">
			<stop  offset="0" style="stop-color:#28C9C1"/>
			<stop  offset="1" style="stop-color:#2CB9DA"/>
		</linearGradient>
		<path fill="url(#SVGID_3_)" d="M80.561,15.298c-0.002,0-0.002,0.001-0.004,0.001h-6.761c0.292-0.293,0.488-0.488,0.488-0.488
			l7.33-7.332v0c0.035-0.035,0.068-0.072,0.102-0.111c0.013-0.016,0.025-0.033,0.037-0.05c0.017-0.021,0.033-0.044,0.05-0.067
			c0.015-0.02,0.025-0.042,0.038-0.063c0.012-0.021,0.026-0.041,0.037-0.062c0.012-0.022,0.021-0.045,0.033-0.067
			c0.008-0.022,0.021-0.043,0.028-0.067c0.011-0.021,0.017-0.043,0.025-0.065c0.008-0.024,0.019-0.048,0.024-0.072
			c0.007-0.022,0.013-0.045,0.017-0.067c0.007-0.025,0.015-0.05,0.019-0.075c0.007-0.026,0.009-0.052,0.013-0.078
			c0.002-0.022,0.009-0.044,0.009-0.066c0.01-0.098,0.01-0.197,0-0.295c0-0.023-0.007-0.044-0.009-0.066
			c-0.004-0.026-0.006-0.052-0.013-0.078c-0.004-0.025-0.012-0.05-0.019-0.075c-0.004-0.022-0.01-0.044-0.017-0.066
			c-0.006-0.025-0.017-0.048-0.024-0.073c-0.009-0.021-0.015-0.043-0.025-0.065c-0.008-0.023-0.021-0.045-0.028-0.067
			c-0.013-0.022-0.021-0.044-0.033-0.066c-0.011-0.021-0.025-0.042-0.037-0.062c-0.013-0.021-0.023-0.042-0.038-0.064
			c-0.017-0.022-0.033-0.044-0.05-0.066c-0.012-0.017-0.024-0.034-0.037-0.05c-0.062-0.076-0.132-0.146-0.209-0.209
			c-0.017-0.014-0.035-0.026-0.054-0.04c-0.021-0.016-0.041-0.033-0.064-0.047c-0.021-0.015-0.043-0.027-0.064-0.04
			c-0.021-0.012-0.039-0.024-0.06-0.035c-0.022-0.012-0.046-0.022-0.07-0.034c-0.021-0.01-0.042-0.02-0.062-0.029
			c-0.022-0.009-0.045-0.017-0.07-0.025c-0.022-0.008-0.043-0.017-0.068-0.024c-0.022-0.007-0.046-0.012-0.07-0.018
			c-0.022-0.006-0.048-0.012-0.07-0.017c-0.029-0.006-0.056-0.009-0.085-0.013c-0.021-0.003-0.039-0.007-0.061-0.009
			c-0.05-0.005-0.102-0.007-0.15-0.007H70.191c-0.002,0-0.002,0-0.004,0c-0.824,0-1.494,0.668-1.494,1.494
			c0,0.826,0.67,1.495,1.494,1.495l0,0l0,0h6.765l-7.821,7.82c-0.035,0.035-0.068,0.072-0.1,0.11
			c-0.01,0.015-0.021,0.029-0.031,0.043c-0.019,0.024-0.039,0.05-0.056,0.075c-0.013,0.019-0.022,0.038-0.035,0.058
			c-0.013,0.022-0.027,0.045-0.039,0.068c-0.011,0.021-0.021,0.04-0.029,0.061c-0.013,0.024-0.024,0.047-0.033,0.071
			c-0.01,0.02-0.017,0.041-0.022,0.062c-0.011,0.025-0.019,0.051-0.027,0.076c-0.006,0.021-0.01,0.042-0.017,0.062
			c-0.006,0.026-0.015,0.053-0.019,0.079c-0.004,0.024-0.008,0.049-0.01,0.074c-0.005,0.022-0.009,0.047-0.013,0.07
			c-0.004,0.047-0.007,0.094-0.007,0.14c0,0.002,0,0.006,0,0.008c0,0.001,0,0.002,0,0.004c0,0.048,0.003,0.095,0.007,0.144
			c0.002,0.022,0.006,0.043,0.01,0.064c0.005,0.027,0.007,0.053,0.013,0.08c0.004,0.024,0.011,0.049,0.017,0.072
			s0.013,0.047,0.019,0.069c0.007,0.023,0.017,0.047,0.025,0.069c0.008,0.022,0.015,0.047,0.024,0.068
			c0.009,0.021,0.019,0.041,0.029,0.062c0.01,0.023,0.021,0.047,0.033,0.071c0.01,0.019,0.022,0.037,0.033,0.056
			c0.015,0.024,0.026,0.047,0.043,0.069c0.013,0.02,0.027,0.038,0.042,0.059c0.014,0.02,0.028,0.039,0.045,0.059
			c0.025,0.032,0.054,0.062,0.083,0.092c0.004,0.007,0.011,0.012,0.015,0.018c0.006,0.007,0.015,0.011,0.021,0.017
			c0.027,0.028,0.059,0.057,0.089,0.081c0.02,0.018,0.042,0.032,0.062,0.047c0.019,0.014,0.035,0.027,0.054,0.04
			c0.025,0.017,0.05,0.03,0.072,0.045c0.02,0.01,0.035,0.021,0.055,0.031c0.024,0.013,0.049,0.024,0.074,0.036
			c0.021,0.008,0.037,0.019,0.058,0.026c0.025,0.011,0.05,0.019,0.075,0.028c0.021,0.007,0.041,0.015,0.062,0.021
			c0.027,0.009,0.054,0.014,0.081,0.021c0.019,0.006,0.039,0.011,0.062,0.016c0.03,0.007,0.063,0.011,0.095,0.015
			c0.017,0.002,0.033,0.005,0.048,0.006c0.05,0.006,0.1,0.009,0.149,0.009h10.373l0,0c0.824,0,1.493-0.669,1.493-1.494
			C82.054,15.967,81.385,15.298,80.561,15.298z"/>
		
			<linearGradient id="SVGID_4_" gradientUnits="userSpaceOnUse" x1="-5777.5918" y1="-939.5063" x2="-5759.9331" y2="-939.5063" gradientTransform="matrix(0.7071 -0.7071 0.7071 0.7071 4818.8364 -3403.1921)">
			<stop  offset="0" style="stop-color:#28B9C1"/>
			<stop  offset="1" style="stop-color:#2CA9DA"/>
		</linearGradient>
		<path fill="url(#SVGID_4_)" d="M80.561,7.915c0.412,0,0.785-0.167,1.054-0.437c0,0,0.003,0,0.003-0.001
			c0.035-0.036,0.067-0.072,0.099-0.11c0.013-0.016,0.025-0.033,0.037-0.05c0.017-0.021,0.033-0.044,0.05-0.067
			c0.013-0.02,0.025-0.042,0.038-0.063c0.012-0.021,0.026-0.041,0.037-0.062c0.012-0.022,0.021-0.045,0.033-0.067
			c0.008-0.022,0.021-0.044,0.028-0.067c0.011-0.021,0.017-0.043,0.025-0.065c0.008-0.024,0.019-0.048,0.024-0.073
			c0.007-0.022,0.013-0.044,0.017-0.067c0.007-0.025,0.015-0.049,0.019-0.075c0.007-0.026,0.009-0.052,0.013-0.078
			c0.002-0.022,0.009-0.044,0.009-0.066c0.006-0.049,0.008-0.098,0.008-0.148c0-0.049-0.002-0.099-0.008-0.147
			c0-0.022-0.007-0.044-0.009-0.066c-0.004-0.026-0.006-0.053-0.013-0.079c-0.004-0.025-0.012-0.05-0.019-0.075
			c-0.004-0.022-0.01-0.045-0.017-0.066c-0.006-0.024-0.017-0.048-0.024-0.073c-0.009-0.021-0.015-0.044-0.025-0.065
			c-0.008-0.023-0.021-0.045-0.028-0.067c-0.013-0.022-0.021-0.044-0.033-0.066c-0.011-0.021-0.025-0.042-0.037-0.062
			c-0.013-0.021-0.025-0.042-0.038-0.063c-0.017-0.022-0.033-0.045-0.05-0.066c-0.012-0.017-0.024-0.034-0.037-0.05
			c-0.031-0.038-0.063-0.075-0.099-0.11c-0.036-0.035-0.073-0.068-0.11-0.099c-0.017-0.014-0.035-0.026-0.054-0.04
			c-0.021-0.016-0.041-0.033-0.064-0.047c-0.021-0.015-0.043-0.027-0.064-0.04c-0.021-0.012-0.039-0.024-0.06-0.035
			c-0.022-0.012-0.046-0.022-0.07-0.034c-0.021-0.01-0.042-0.02-0.062-0.029c-0.022-0.009-0.045-0.017-0.07-0.025
			c-0.022-0.008-0.043-0.017-0.068-0.024c-0.022-0.007-0.046-0.012-0.07-0.018c-0.022-0.006-0.048-0.012-0.07-0.017
			c-0.027-0.006-0.056-0.009-0.085-0.013c-0.021-0.003-0.039-0.007-0.061-0.009c-0.047-0.005-0.097-0.007-0.146-0.007
			c-0.002,0-0.002,0-0.004,0l0,0c-0.382,0.001-0.763,0.146-1.053,0.438l0,0l0,0l-2.552,2.551H80.561L80.561,7.915z"/>
		
			<linearGradient id="SVGID_5_" gradientUnits="userSpaceOnUse" x1="-5777.5898" y1="-939.5068" x2="-5759.9307" y2="-939.5068" gradientTransform="matrix(0.7071 -0.7071 0.7071 0.7071 4818.8364 -3403.1921)">
			<stop  offset="0" style="stop-color:#28B9C1"/>
			<stop  offset="1" style="stop-color:#2CA9DA"/>
		</linearGradient>
		<path fill="url(#SVGID_5_)" d="M73.796,15.299h-3.604c-0.002,0-0.002-0.001-0.004-0.001c-0.412,0-0.785,0.167-1.057,0.438v0.001
			l0,0c-0.035,0.035-0.068,0.072-0.1,0.109c-0.01,0.014-0.021,0.029-0.031,0.043c-0.019,0.024-0.039,0.05-0.056,0.075
			c-0.013,0.019-0.022,0.038-0.035,0.058c-0.013,0.022-0.027,0.045-0.039,0.068c-0.011,0.02-0.021,0.04-0.029,0.061
			c-0.013,0.024-0.024,0.047-0.033,0.071c-0.01,0.02-0.017,0.041-0.022,0.062c-0.011,0.025-0.019,0.051-0.027,0.076
			c-0.006,0.021-0.01,0.042-0.017,0.062c-0.006,0.026-0.015,0.053-0.019,0.079c-0.004,0.024-0.008,0.049-0.01,0.074
			c-0.005,0.022-0.009,0.047-0.013,0.07c-0.004,0.047-0.007,0.092-0.007,0.14c0,0.003,0,0.008,0,0.012
			c0,0.049,0.003,0.097,0.007,0.144c0.002,0.021,0.006,0.043,0.01,0.064c0.005,0.027,0.009,0.053,0.013,0.08
			c0.004,0.024,0.013,0.049,0.017,0.072c0.006,0.023,0.013,0.047,0.019,0.069c0.007,0.023,0.017,0.047,0.025,0.069
			c0.008,0.022,0.015,0.047,0.024,0.068c0.009,0.021,0.019,0.041,0.029,0.062c0.01,0.023,0.021,0.047,0.033,0.071
			c0.01,0.019,0.022,0.037,0.033,0.056c0.015,0.024,0.026,0.047,0.043,0.069c0.013,0.02,0.027,0.038,0.042,0.059
			c0.014,0.02,0.028,0.039,0.045,0.059c0.025,0.031,0.054,0.062,0.083,0.092c0.011,0.013,0.022,0.023,0.035,0.034
			c0.027,0.028,0.059,0.057,0.089,0.081c0.02,0.017,0.042,0.031,0.062,0.047c0.019,0.014,0.035,0.027,0.054,0.04
			c0.023,0.016,0.05,0.03,0.072,0.045c0.02,0.01,0.035,0.021,0.055,0.031c0.024,0.013,0.049,0.024,0.074,0.036
			c0.021,0.008,0.037,0.019,0.058,0.026c0.025,0.01,0.05,0.019,0.075,0.028c0.021,0.006,0.041,0.015,0.062,0.021
			c0.027,0.009,0.054,0.014,0.081,0.021c0.019,0.005,0.039,0.011,0.062,0.016c0.03,0.007,0.062,0.011,0.095,0.014
			c0.017,0.003,0.033,0.006,0.048,0.007c0.05,0.006,0.1,0.009,0.149,0.009l0,0l0,0l0,0c0.383,0,0.766-0.146,1.059-0.438
			C71.246,17.849,72.936,16.158,73.796,15.299z"/>
	</g>
	<g>
		<linearGradient id="SVGID_6_" gradientUnits="userSpaceOnUse" x1="30.0215" y1="14.2002" x2="43.3818" y2="14.2002">
			<stop  offset="0" style="stop-color:#28C9C1"/>
			<stop  offset="1" style="stop-color:#2CB9DA"/>
		</linearGradient>
		<path fill="url(#SVGID_6_)" d="M43.382,11.606c0-3.689-2.99-6.68-6.68-6.68c-3.69,0-6.681,2.991-6.681,6.68
			c0,3.689,2.991,6.681,6.681,6.681c1.365,0,2.633-0.41,3.691-1.113v4.803c0,0.001,0,0.002,0,0.003c0,0.825,0.669,1.494,1.494,1.494
			s1.494-0.669,1.494-1.494l0,0l0,0V11.606L43.382,11.606L43.382,11.606z M36.702,15.294c-2.037,0-3.688-1.65-3.688-3.688
			c0-2.036,1.651-3.687,3.688-3.687c2.036,0,3.687,1.651,3.687,3.687C40.389,13.644,38.738,15.294,36.702,15.294z"/>
		<linearGradient id="SVGID_7_" gradientUnits="userSpaceOnUse" x1="30.0229" y1="13.6436" x2="43.3819" y2="13.6436">
			<stop  offset="0" style="stop-color:#28B9C1"/>
			<stop  offset="1" style="stop-color:#2CA9DA"/>
		</linearGradient>
		<path fill="url(#SVGID_7_)" d="M43.382,11.606L43.382,11.606c0-0.825-0.669-1.494-1.494-1.494s-1.494,0.669-1.494,1.494
			c0,0.001,0,0.002,0,0.003v5.564C42.194,15.978,43.382,13.933,43.382,11.606z"/>
	</g>
	<g>
		<linearGradient id="SVGID_8_" gradientUnits="userSpaceOnUse" x1="0.4116" y1="11.3594" x2="13.772" y2="11.3594">
			<stop  offset="0" style="stop-color:#28C9C1"/>
			<stop  offset="1" style="stop-color:#2CB9DA"/>
		</linearGradient>
		<path fill="url(#SVGID_8_)" d="M13.771,11.593c0-0.023-0.002-0.046-0.003-0.069c0.002-0.055,0.004-0.109,0.004-0.165
			c0-3.689-2.991-6.68-6.68-6.68c-3.69,0-6.681,2.991-6.681,6.68c0,0.055,0.003,0.11,0.004,0.166
			c-0.001,0.027-0.004,0.054-0.004,0.082c0,0.076,0.007,0.15,0.018,0.222c0.242,3.47,3.131,6.211,6.663,6.211
			c1.713,0,3.274-0.646,4.457-1.706l-0.003-0.004c0.3-0.273,0.49-0.666,0.49-1.104c0-0.825-0.669-1.494-1.494-1.494
			c-0.381,0-0.728,0.144-0.992,0.379l-0.001-0.002c-0.653,0.582-1.513,0.938-2.456,0.938c-1.407,0-2.629-0.787-3.25-1.946h8.433
			c0.001,0,0.002,0,0.003,0c0.825,0,1.494-0.668,1.494-1.494l0,0l0,0C13.772,11.603,13.771,11.597,13.771,11.593z M7.092,7.672
			c1.598,0,2.959,1.017,3.47,2.441H3.622C4.132,8.689,5.494,7.672,7.092,7.672z"/>
		<g>
			<linearGradient id="SVGID_9_" gradientUnits="userSpaceOnUse" x1="0.4111" y1="11.6064" x2="13.7726" y2="11.6064">
				<stop  offset="0" style="stop-color:#28B9C1"/>
				<stop  offset="1" style="stop-color:#2CA9DA"/>
			</linearGradient>
			<path fill="url(#SVGID_9_)" d="M3.622,10.113H1.906l0,0c-0.798,0-1.447,0.625-1.491,1.412c0.003,0.102,0.007,0.203,0.014,0.304
				c0.108,0.72,0.727,1.272,1.477,1.272c0.001,0,0.001,0,0.002,0h1.933c-0.279-0.519-0.437-1.111-0.437-1.742
				C3.405,10.921,3.481,10.502,3.622,10.113z"/>
			<linearGradient id="SVGID_10_" gradientUnits="userSpaceOnUse" x1="0.4121" y1="11.6064" x2="13.7717" y2="11.6064">
				<stop  offset="0" style="stop-color:#28B9C1"/>
				<stop  offset="1" style="stop-color:#2CA9DA"/>
			</linearGradient>
			<path fill="url(#SVGID_10_)" d="M13.768,11.524C13.768,11.523,13.768,11.523,13.768,11.524c-0.043-0.787-0.693-1.411-1.49-1.411
				h0l0,0h-1.715c0.14,0.389,0.216,0.809,0.216,1.246c0,0.052-0.001,0.105-0.004,0.158h0.014c-0.002,0.03-0.005,0.06-0.005,0.09
				c0,0.826,0.669,1.494,1.495,1.494c0.825,0,1.494-0.668,1.494-1.494c0-0.004,0-0.009,0-0.014
				C13.771,11.569,13.77,11.546,13.768,11.524z"/>
		</g>
	</g>
	<g>
		<linearGradient id="SVGID_11_" gradientUnits="userSpaceOnUse" x1="101.3916" y1="11.3594" x2="114.7539" y2="11.3594">
			<stop  offset="0" style="stop-color:#28C9C1"/>
			<stop  offset="1" style="stop-color:#2CB9DA"/>
		</linearGradient>
		<path fill="url(#SVGID_11_)" d="M114.751,11.593c0-0.023-0.002-0.046-0.004-0.069c0.002-0.055,0.007-0.109,0.007-0.165
			c0-3.689-2.991-6.68-6.683-6.68c-3.688,0-6.68,2.991-6.68,6.68c0,0.055,0.004,0.11,0.004,0.166c0,0.027-0.004,0.054-0.004,0.082
			c0,0.076,0.008,0.15,0.019,0.222c0.242,3.47,3.132,6.211,6.661,6.211c1.713,0,3.274-0.646,4.458-1.706l-0.005-0.004
			c0.301-0.273,0.491-0.666,0.491-1.104c0-0.825-0.669-1.494-1.495-1.494c-0.38,0-0.728,0.144-0.99,0.379l-0.002-0.002
			c-0.652,0.582-1.513,0.938-2.457,0.938c-1.406,0-2.626-0.787-3.25-1.946h8.435h0.002c0.826,0,1.496-0.668,1.496-1.494l0,0l0,0
			C114.754,11.603,114.751,11.597,114.751,11.593z M108.071,7.672c1.6,0,2.96,1.017,3.472,2.441h-6.941
			C105.113,8.689,106.473,7.672,108.071,7.672z"/>
		<g>
			<linearGradient id="SVGID_12_" gradientUnits="userSpaceOnUse" x1="101.3916" y1="11.6064" x2="114.7512" y2="11.6064">
				<stop  offset="0" style="stop-color:#28B9C1"/>
				<stop  offset="1" style="stop-color:#2CA9DA"/>
			</linearGradient>
			<path fill="url(#SVGID_12_)" d="M104.602,10.113h-1.715l0,0c-0.799,0-1.447,0.625-1.491,1.412
				c0.002,0.102,0.009,0.203,0.015,0.304c0.107,0.72,0.727,1.272,1.477,1.272c0,0,0,0,0.002,0h1.933
				c-0.277-0.519-0.437-1.111-0.437-1.742C104.385,10.921,104.461,10.502,104.602,10.113z"/>
			<linearGradient id="SVGID_13_" gradientUnits="userSpaceOnUse" x1="101.3887" y1="11.6064" x2="114.7544" y2="11.6064">
				<stop  offset="0" style="stop-color:#28B9C1"/>
				<stop  offset="1" style="stop-color:#2CA9DA"/>
			</linearGradient>
			<path fill="url(#SVGID_13_)" d="M114.747,11.524C114.747,11.523,114.747,11.523,114.747,11.524
				c-0.043-0.787-0.691-1.411-1.489-1.411l0,0l0,0h-1.715c0.139,0.389,0.218,0.809,0.218,1.246c0,0.052-0.002,0.105-0.005,0.158
				h0.013c-0.002,0.03-0.006,0.06-0.006,0.09c0,0.826,0.671,1.494,1.495,1.494c0.826,0,1.496-0.668,1.496-1.494
				c0-0.004-0.003-0.009-0.003-0.014C114.751,11.569,114.749,11.546,114.747,11.524z"/>
		</g>
	</g>
	<g>
		<linearGradient id="SVGID_14_" gradientUnits="userSpaceOnUse" x1="15.2666" y1="11.334" x2="28.5273" y2="11.334">
			<stop  offset="0" style="stop-color:#E53D57"/>
			<stop  offset="1" style="stop-color:#E53DA3"/>
		</linearGradient>
		<path fill="url(#SVGID_14_)" d="M28.089,15.413l-2.938-2.938l0,0l-1.141-1.141l4.079-4.079v0c0.583-0.584,0.583-1.53,0-2.113
			c-0.583-0.583-1.53-0.583-2.113,0c0,0-0.001,0.001-0.001,0.001L21.897,9.22l-4.08-4.079l0,0c-0.583-0.583-1.53-0.583-2.113,0
			c-0.583,0.583-0.583,1.529,0,2.113c0,0.001,0.001,0.001,0.001,0.001l4.078,4.078l-4.078,4.078c0,0.001-0.001,0.001-0.001,0.002
			c-0.583,0.583-0.584,1.529,0,2.112c0.583,0.585,1.53,0.585,2.113,0l2.938-2.937l0,0l1.142-1.142l4.078,4.076
			c0,0.001,0,0.002,0.001,0.002c0.583,0.585,1.53,0.585,2.113,0C28.673,16.942,28.673,15.996,28.089,15.413z"/>
		<linearGradient id="SVGID_15_" gradientUnits="userSpaceOnUse" x1="19.7842" y1="11.3594" x2="24.0107" y2="11.3594">
			<stop  offset="0" style="stop-color:#D83D57"/>
			<stop  offset="1" style="stop-color:#D53DA3"/>
		</linearGradient>
		<polygon fill="url(#SVGID_15_)" points="19.784,11.359 21.897,13.473 24.011,11.359 21.897,9.246 		"/>
	</g>
	<g>
		<linearGradient id="SVGID_16_" gradientUnits="userSpaceOnUse" x1="46.3706" y1="11.6069" x2="59.7314" y2="11.6069">
			<stop  offset="0" style="stop-color:#28C9C1"/>
			<stop  offset="1" style="stop-color:#2CB9DA"/>
		</linearGradient>
		<path fill="url(#SVGID_16_)" d="M59.731,11.606c0-0.038-0.002-0.075-0.003-0.113V6.42l0,0c0-0.825-0.669-1.494-1.495-1.494
			c-0.825,0-1.494,0.668-1.494,1.494c0,0.001,0,0.001,0,0.003V11.6l-0.002,0.006c0,2.037-1.651,3.688-3.687,3.688
			s-3.688-1.65-3.688-3.688L49.359,6.42l0,0c0-0.825-0.669-1.494-1.494-1.494c-0.825,0-1.495,0.668-1.495,1.494
			c0,0.001,0,0.001,0,0.003c0,0,0,5.183,0,5.183c0,3.689,2.991,6.681,6.681,6.681c1.383,0,2.667-0.421,3.732-1.14
			c0.16,0.654,0.748,1.14,1.45,1.14c0.825,0,1.495-0.669,1.495-1.494l0,0l0,0v-5.079C59.729,11.678,59.731,11.643,59.731,11.606z"/>
		<linearGradient id="SVGID_17_" gradientUnits="userSpaceOnUse" x1="56.4341" y1="11.0361" x2="60.0392" y2="11.0361">
			<stop  offset="0" style="stop-color:#28B9C1"/>
			<stop  offset="1" style="stop-color:#2CA9DA"/>
		</linearGradient>
		<path fill="url(#SVGID_17_)" d="M59.731,6.42c0-0.825-0.669-1.494-1.495-1.494c-0.703,0-1.292,0.487-1.45,1.141v0
			c-0.001,0.003-0.001,0.006-0.002,0.008c-0.012,0.052-0.022,0.104-0.029,0.159c0,0.003-0.001,0.006-0.002,0.009
			c-0.006,0.058-0.012,0.117-0.012,0.177c0,0.001,0.001,0.001,0.001,0.003v10.368c0,0.001-0.001,0.001-0.001,0.002
			c0,0.06,0.005,0.119,0.012,0.177c0.001,0.003,0.001,0.006,0.002,0.01c0.007,0.057,0.018,0.111,0.031,0.166
			c1.776-1.2,2.944-3.233,2.944-5.539V6.42L59.731,6.42z"/>
	</g>
	<g>
		<linearGradient id="SVGID_18_" gradientUnits="userSpaceOnUse" x1="85.043" y1="11.6284" x2="98.4023" y2="11.6284">
			<stop  offset="0" style="stop-color:#28C9C1"/>
			<stop  offset="1" style="stop-color:#2CB9DA"/>
		</linearGradient>
		<path fill="url(#SVGID_18_)" d="M98.402,9.057L98.402,9.057c0-0.002,0-0.003,0-0.005V8.965H98.4
			C98.353,6.75,96.543,4.97,94.315,4.97c-0.983,0-1.887,0.348-2.593,0.927c-0.704-0.58-1.607-0.927-2.594-0.927
			c-2.227,0-4.034,1.781-4.084,3.996h-0.002v7.813l0,0c0,0.834,0.669,1.509,1.493,1.509c0.826,0,1.495-0.675,1.495-1.509
			c0-0.001,0-0.002,0-0.003V9.057l0,0c0-0.607,0.491-1.099,1.098-1.099c0.607,0,1.099,0.49,1.101,1.095v7.725l0,0
			c0,0.834,0.669,1.509,1.493,1.509c0.826,0,1.495-0.675,1.495-1.509c0-0.001,0-0.002,0-0.003V9.057l0,0c0,0,0,0,0-0.001
			c0-0.606,0.491-1.098,1.098-1.098c0.607,0,1.099,0.491,1.099,1.096v7.724l0,0c0,0.834,0.669,1.509,1.495,1.509
			c0.824,0,1.493-0.675,1.493-1.509c0-0.001,0-0.002,0-0.003V9.057z"/>
		<linearGradient id="SVGID_19_" gradientUnits="userSpaceOnUse" x1="90.2295" y1="12.0918" x2="93.2178" y2="12.0918">
			<stop  offset="0" style="stop-color:#28B9C1"/>
			<stop  offset="1" style="stop-color:#2CA9DA"/>
		</linearGradient>
		<path fill="url(#SVGID_19_)" d="M93.218,9.06c0-0.001,0-0.001,0-0.003c0,0,0,0,0,0c0,0,0,0,0-0.001
			c-0.002-1.272-0.584-2.409-1.495-3.159c0,0,0,0,0,0v0v0c-0.909,0.748-1.491,1.881-1.493,3.15c0,0.002,0,0.003,0,0.005
			c0,0.001,0,7.738,0,7.738c0,0.001,0,0.001,0,0.002c0,0.825,0.669,1.494,1.493,1.494c0.826,0,1.495-0.669,1.495-1.494l0,0l0,0V9.06
			z"/>
	</g>
</g>
</svg>
