<?xml version="1.0" encoding="utf-8"?>
<!-- Generator: Adobe Illustrator 21.1.0, SVG Export Plug-In . SVG Version: 6.00 Build 0)  -->
<svg version="1.1" id="Layer_1" xmlns="http://www.w3.org/2000/svg" xmlns:xlink="http://www.w3.org/1999/xlink" x="0px" y="0px"
	 viewBox="0 0 34 34" style="enable-background:new 0 0 34 34;" xml:space="preserve">
<style type="text/css">
	.st0{fill:#D8D8D8;}
	.st1{fill:#FFFFFF;}
	.st2{fill:#9E9E9E;}
</style>
<g>
	<path class="st1" d="M12.5,29.9c-0.1,0-0.1,0-0.2-0.1l-8.2-8.2c-0.1-0.1-0.1-0.3,0-0.4l21-21c0.1-0.1,0.3-0.1,0.4,0l8.2,8.2
		c0,0,0.1,0.1,0.1,0.2s0,0.1-0.1,0.2l-21,21C12.7,29.9,12.6,29.9,12.5,29.9z M4.7,21.5l7.9,7.9L33.1,8.7l-7.9-7.9L4.7,21.5z"/>
	<path class="st1" d="M0.5,33.7c-0.1,0-0.1,0-0.2-0.1c-0.1-0.1-0.1-0.2-0.1-0.3l3.8-12c0-0.1,0.1-0.1,0.2-0.2c0.1,0,0.2,0,0.2,0.1
		l8.2,8.2c0.1,0.1,0.1,0.2,0.1,0.2c0,0.1-0.1,0.2-0.2,0.2L0.5,33.7C0.6,33.7,0.5,33.7,0.5,33.7z M4.4,21.9L0.9,33.1l11.2-3.5
		L4.4,21.9z"/>
	<path class="st1" d="M7.6,31.3c-0.1,0-0.1,0-0.2-0.1l-4.8-4.8c-0.1-0.1-0.1-0.3,0-0.4s0.3-0.1,0.4,0l4.8,4.8c0.1,0.1,0.1,0.3,0,0.4
		C7.8,31.3,7.7,31.3,7.6,31.3z"/>
	<path class="st1" d="M13.4,17.9c-0.1,0-0.1,0-0.2-0.1c-0.1-0.1-0.1-0.3,0-0.4L27.7,3c0.1-0.1,0.3-0.1,0.4,0s0.1,0.3,0,0.4
		L13.6,17.9C13.5,17.9,13.5,17.9,13.4,17.9z"/>
	<path class="st1" d="M7.2,24.1c-0.1,0-0.1,0-0.2-0.1c-0.1-0.1-0.1-0.3,0-0.4l3.7-3.7c0.1-0.1,0.3-0.1,0.4,0s0.1,0.3,0,0.4L7.4,24
		C7.4,24.1,7.3,24.1,7.2,24.1z"/>
	<path class="st1" d="M23,13.9c-0.1,0-0.1,0-0.2-0.1c-0.1-0.1-0.1-0.3,0-0.4l7.7-7.7c0.1-0.1,0.3-0.1,0.4,0s0.1,0.3,0,0.4l-7.7,7.7
		C23.1,13.8,23,13.9,23,13.9z"/>
	<path class="st1" d="M9.7,27.1c-0.1,0-0.1,0-0.2-0.1c-0.1-0.1-0.1-0.3,0-0.4l11.2-11.2c0.1-0.1,0.3-0.1,0.4,0s0.1,0.3,0,0.4L9.9,27
		C9.8,27.1,9.8,27.1,9.7,27.1z"/>
</g>
</svg>
