<?xml version="1.0" encoding="utf-8"?>
<!-- Generator: Adobe Illustrator 21.1.0, SVG Export Plug-In . SVG Version: 6.00 Build 0)  -->
<svg version="1.1" id="Layer_1" xmlns="http://www.w3.org/2000/svg" xmlns:xlink="http://www.w3.org/1999/xlink" x="0px" y="0px"
	 viewBox="0 0 34 34" style="enable-background:new 0 0 34 34;" xml:space="preserve">
<style type="text/css">
	.st0{fill:#D8D8D8;}
	.st1{fill:#FFFFFF;}
	.st2{fill:#9E9E9E;}
</style>
<g>
	<path class="st0" d="M27.6,9.6H6.4c-0.1,0-0.2-0.1-0.2-0.2V3.7c0-0.1,0.1-0.2,0.2-0.2h21.3c0.1,0,0.2,0.1,0.2,0.2v5.7
		C27.9,9.5,27.8,9.6,27.6,9.6z M6.6,9.1h20.8V3.9H6.6V9.1z"/>
	<path class="st0" d="M25.5,33.4H8.5c-0.1,0-0.2-0.1-0.2-0.2L7.9,9.3c0-0.1,0.1-0.3,0.2-0.3c0,0,0,0,0,0c0.1,0,0.2,0.1,0.2,0.2
		l0.3,23.6h16.6l0.3-17.6c0-0.1,0.1-0.2,0.3-0.2c0.1,0,0.2,0.1,0.2,0.3l-0.3,17.8C25.8,33.3,25.7,33.4,25.5,33.4z"/>
	<path class="st0" d="M21.9,3.9c-0.1,0-0.2-0.1-0.2-0.2c0-1.4-1-2.6-2.2-2.6h-5c-1.2,0-2.2,1.2-2.2,2.6c0,0.1-0.1,0.2-0.2,0.2
		s-0.2-0.1-0.2-0.2c0-1.7,1.2-3.1,2.7-3.1h5c1.5,0,2.7,1.4,2.7,3.1C22.2,3.8,22.1,3.9,21.9,3.9z"/>
	<path class="st0" d="M17,29.5c-0.1,0-0.2-0.1-0.2-0.2V13.4c0-0.1,0.1-0.2,0.2-0.2s0.2,0.1,0.2,0.2v15.9
		C17.2,29.4,17.1,29.5,17,29.5z"/>
	<path class="st0" d="M13.2,29.5c-0.1,0-0.2-0.1-0.2-0.2l-0.3-11c0-0.1,0.1-0.3,0.2-0.3c0.2,0,0.3,0.1,0.3,0.2l0.3,11
		C13.4,29.4,13.3,29.5,13.2,29.5C13.2,29.5,13.2,29.5,13.2,29.5z"/>
	<path class="st0" d="M12.8,15.6c-0.1,0-0.2-0.1-0.2-0.2l-0.1-2c0-0.1,0.1-0.3,0.2-0.3c0.2,0,0.3,0.1,0.3,0.2l0.1,2
		C13.1,15.5,13,15.6,12.8,15.6C12.8,15.6,12.8,15.6,12.8,15.6z"/>
	<path class="st0" d="M20.8,29.5C20.8,29.5,20.8,29.5,20.8,29.5c-0.1,0-0.3-0.1-0.2-0.3l0.1-4.5c0-0.1,0.1-0.3,0.3-0.2
		c0.1,0,0.2,0.1,0.2,0.3l-0.1,4.5C21.1,29.4,20.9,29.5,20.8,29.5z"/>
	<path class="st0" d="M21,21.6C21,21.6,21,21.6,21,21.6c-0.1,0-0.3-0.1-0.2-0.3l0.2-7.9c0-0.1,0.1-0.3,0.3-0.2
		c0.1,0,0.2,0.1,0.2,0.3l-0.2,7.9C21.3,21.5,21.2,21.6,21,21.6z"/>
</g>
</svg>
