<?xml version="1.0" encoding="utf-8"?>
<!-- Generator: Adobe Illustrator 21.1.0, SVG Export Plug-In . SVG Version: 6.00 Build 0)  -->
<svg version="1.1" id="Layer_1" xmlns="http://www.w3.org/2000/svg" xmlns:xlink="http://www.w3.org/1999/xlink" x="0px" y="0px"
	 viewBox="0 0 34 34" style="enable-background:new 0 0 34 34;" xml:space="preserve">
<style type="text/css">
	.st0{fill:#D8D8D8;}
	.st1{fill:#FFFFFF;}
	.st2{fill:#9E9E9E;}
</style>
<g>
	<path class="st2" d="M17,5.7c-1.3,0-2.4-1.1-2.4-2.4s1.1-2.4,2.4-2.4s2.4,1.1,2.4,2.4S18.3,5.7,17,5.7z M17,1.1
		c-1.2,0-2.2,1-2.2,2.2s1,2.2,2.2,2.2s2.2-1,2.2-2.2S18.2,1.1,17,1.1z"/>
	<path class="st2" d="M3.3,19.4c-1.3,0-2.4-1.1-2.4-2.4s1.1-2.4,2.4-2.4s2.4,1.1,2.4,2.4S4.6,19.4,3.3,19.4z M3.3,14.8
		c-1.2,0-2.2,1-2.2,2.2s1,2.2,2.2,2.2s2.2-1,2.2-2.2S4.5,14.8,3.3,14.8z"/>
	<path class="st2" d="M17,33.1c-1.3,0-2.4-1.1-2.4-2.4s1.1-2.4,2.4-2.4s2.4,1.1,2.4,2.4S18.3,33.1,17,33.1z M17,28.6
		c-1.2,0-2.2,1-2.2,2.2s1,2.2,2.2,2.2s2.2-1,2.2-2.2S18.2,28.6,17,28.6z"/>
	<path class="st2" d="M30.7,19.4c-1.3,0-2.4-1.1-2.4-2.4s1.1-2.4,2.4-2.4s2.4,1.1,2.4,2.4S32,19.4,30.7,19.4z M30.7,14.8
		c-1.2,0-2.2,1-2.2,2.2s1,2.2,2.2,2.2s2.2-1,2.2-2.2S31.9,14.8,30.7,14.8z"/>
	<path class="st2" d="M10.7,6.2c0,0-0.1,0-0.1-0.1l-1.1-2c0-0.1,0-0.1,0-0.2c0.1,0,0.1,0,0.2,0l1.1,2C10.9,6.1,10.8,6.2,10.7,6.2
		C10.8,6.2,10.7,6.2,10.7,6.2z"/>
	<path class="st2" d="M6.1,10.8C6.1,10.8,6.1,10.8,6.1,10.8l-2-1.2C4,9.6,4,9.6,4,9.5c0-0.1,0.1-0.1,0.2,0l2,1.1
		c0.1,0,0.1,0.1,0,0.2C6.2,10.8,6.2,10.8,6.1,10.8z"/>
	<path class="st2" d="M4.1,24.6c0,0-0.1,0-0.1-0.1c0-0.1,0-0.1,0-0.2l2-1.1c0.1,0,0.1,0,0.2,0c0,0.1,0,0.1,0,0.2L4.1,24.6
		C4.2,24.5,4.2,24.6,4.1,24.6z"/>
	<path class="st2" d="M9.6,30C9.5,30,9.5,30,9.6,30c-0.1-0.1-0.1-0.1-0.1-0.2l1.1-2c0-0.1,0.1-0.1,0.2,0c0.1,0,0.1,0.1,0,0.2l-1.1,2
		C9.7,30,9.6,30,9.6,30z"/>
	<path class="st2" d="M24.4,30c0,0-0.1,0-0.1-0.1l-1.1-2c0-0.1,0-0.1,0-0.2c0.1,0,0.1,0,0.2,0l1.1,2C24.6,29.9,24.6,29.9,24.4,30
		C24.5,30,24.5,30,24.4,30z"/>
	<path class="st2" d="M29.9,24.6C29.8,24.6,29.8,24.5,29.9,24.6l-2-1.2c-0.1,0-0.1-0.1,0-0.2c0-0.1,0.1-0.1,0.2,0l2,1.1
		c0.1,0,0.1,0.1,0,0.2C30,24.5,29.9,24.6,29.9,24.6z"/>
	<path class="st2" d="M27.9,10.8c0,0-0.1,0-0.1-0.1c0-0.1,0-0.1,0-0.2l2-1.1c0.1,0,0.1,0,0.2,0c0,0.1,0,0.1,0,0.2L27.9,10.8
		C27.9,10.8,27.9,10.8,27.9,10.8z"/>
	<path class="st2" d="M23.3,6.2C23.3,6.2,23.2,6.2,23.3,6.2c-0.1-0.1-0.1-0.1-0.1-0.2l1.1-2c0-0.1,0.1-0.1,0.2,0s0.1,0.1,0,0.2
		l-1.1,2C23.4,6.2,23.3,6.2,23.3,6.2z"/>
	<path class="st2" d="M23.1,17.5H17c-0.1,0-0.1-0.1-0.1-0.1V8.2c0-0.1,0.1-0.1,0.1-0.1s0.1,0.1,0.1,0.1v9h6c0.1,0,0.1,0.1,0.1,0.1
		S23.2,17.5,23.1,17.5z"/>
</g>
</svg>
