<?xml version="1.0" encoding="utf-8"?>
<!-- Generator: Adobe Illustrator 21.1.0, SVG Export Plug-In . SVG Version: 6.00 Build 0)  -->
<svg version="1.1" id="Layer_1" xmlns="http://www.w3.org/2000/svg" xmlns:xlink="http://www.w3.org/1999/xlink" x="0px" y="0px"
	 viewBox="0 0 34 34" style="enable-background:new 0 0 34 34;" xml:space="preserve">
<style type="text/css">
	.st0{fill:#FFFFFF;}
</style>
<g>
	<path class="st0" d="M24.8,7.1h-4c-0.1-1.2-0.9-2.1-2-2.1h-3.6c-1,0-1.9,0.9-2,2.1h-4C9.1,7.1,9,7.2,9,7.3v4.1
		c0,0.1,0.1,0.2,0.2,0.2h1.1l0.2,17.2c0,0.1,0.1,0.2,0.2,0.2h12.5c0.1,0,0.2-0.1,0.2-0.2l0.2-13c0-0.1-0.1-0.2-0.2-0.2
		s-0.2,0.1-0.2,0.2L23,28.6H11l-0.2-17.1h14.1c0.1,0,0.2-0.1,0.2-0.2v-4C24.9,7.2,24.9,7.1,24.8,7.1z M15.2,5.4h3.6
		c0.8,0,1.5,0.7,1.6,1.7h-6.8C13.7,6.1,14.3,5.4,15.2,5.4z M24.6,11.2H10.5l0,0H9.4V7.4h15.2C24.6,7.4,24.6,11.2,24.6,11.2z"/>
	<path class="st0" d="M16.8,14.4V26c0,0.1,0.1,0.2,0.2,0.2s0.2-0.1,0.2-0.2V14.4c0-0.1-0.1-0.2-0.2-0.2S16.8,14.3,16.8,14.4z"/>
	<path class="st0" d="M14.2,26.1L14.2,26.1c0.1,0,0.2-0.1,0.2-0.2l-0.2-8c0-0.1-0.1-0.2-0.2-0.2c-0.1,0-0.2,0.1-0.2,0.2l0.2,8
		C14,26,14.1,26.1,14.2,26.1z"/>
	<path class="st0" d="M13.9,16c0.1,0,0.2-0.1,0.2-0.2v-1.4c0-0.1-0.1-0.2-0.2-0.2c-0.1,0-0.2,0.1-0.2,0.2v1.4
		C13.8,15.9,13.8,16,13.9,16L13.9,16z"/>
	<path class="st0" d="M19.7,22.6l-0.1,3.3c0,0.1,0.1,0.2,0.2,0.2l0,0c0.1,0,0.2-0.1,0.2-0.2l0.1-3.3c0-0.1-0.1-0.2-0.2-0.2
		C19.8,22.4,19.7,22.5,19.7,22.6z"/>
	<path class="st0" d="M20.1,20.2l0.2-5.8c0-0.1-0.1-0.2-0.2-0.2s-0.2,0.1-0.2,0.2l-0.2,5.8c0,0.1,0.1,0.2,0.2,0.2l0,0
		C20,20.3,20.1,20.3,20.1,20.2z"/>
</g>
</svg>
