<?xml version="1.0" encoding="utf-8"?>
<!-- Generator: Adobe Illustrator 16.0.0, SVG Export Plug-In . SVG Version: 6.00 Build 0)  -->
<!DOCTYPE svg PUBLIC "-//W3C//DTD SVG 1.1//EN" "http://www.w3.org/Graphics/SVG/1.1/DTD/svg11.dtd">
<svg version="1.1" id="레이어_1" xmlns="http://www.w3.org/2000/svg" xmlns:xlink="http://www.w3.org/1999/xlink" x="0px"
	 y="0px" width="115.25px" height="24px" viewBox="0 0 115.25 24" enable-background="new 0 0 115.25 24" xml:space="preserve">
<linearGradient id="SVGID_1_" gradientUnits="userSpaceOnUse" x1="15.689" y1="14.8525" x2="27.3696" y2="14.8525">
	<stop  offset="0" style="stop-color:#000000;stop-opacity:0.6"/>
	<stop  offset="1" style="stop-color:#000000;stop-opacity:0.8"/>
</linearGradient>
<path opacity="0.8" fill="url(#SVGID_1_)" d="M27.07,19.72c0.483,0.625,0.37,1.507-0.255,1.961c-0.255,0.198-0.54,0.312-0.853,0.312
	c-0.426,0-0.824-0.198-1.108-0.54l-3.325-4.292l-3.324,4.292c-0.285,0.342-0.682,0.54-1.108,0.54c-0.313,0-0.597-0.113-0.853-0.312
	c-0.625-0.454-0.739-1.336-0.256-1.961l3.75-4.858L15.988,10c-0.483-0.625-0.37-1.506,0.256-1.988
	c0.597-0.483,1.478-0.37,1.96,0.255l3.324,4.291l3.325-4.291c0.483-0.625,1.364-0.739,1.96-0.255C27.44,8.495,27.553,9.376,27.07,10
	l-3.75,4.861L27.07,19.72z"/>
<linearGradient id="SVGID_2_" gradientUnits="userSpaceOnUse" x1="48.0083" y1="14.8887" x2="59.5166" y2="14.8887">
	<stop  offset="0" style="stop-color:#000000;stop-opacity:0.6"/>
	<stop  offset="1" style="stop-color:#000000;stop-opacity:0.8"/>
</linearGradient>
<path opacity="0.8" fill="url(#SVGID_2_)" d="M59.517,9.149v7.132v0.028c-0.028,3.154-2.585,5.711-5.768,5.711
	c-3.155,0-5.711-2.557-5.74-5.711v-0.028V9.149c0-0.768,0.625-1.393,1.393-1.393c0.796,0,1.419,0.625,1.419,1.393v7.103
	c0,1.619,1.309,2.955,2.928,2.955c1.647,0,2.954-1.336,2.954-2.955V9.149c0-0.768,0.626-1.393,1.421-1.393
	C58.891,7.756,59.517,8.381,59.517,9.149z"/>
<linearGradient id="SVGID_3_" gradientUnits="userSpaceOnUse" x1="61.2773" y1="12.0605" x2="64.0908" y2="12.0605">
	<stop  offset="0" style="stop-color:#000000;stop-opacity:0.6"/>
	<stop  offset="1" style="stop-color:#000000;stop-opacity:0.8"/>
</linearGradient>
<path opacity="0.8" fill="url(#SVGID_3_)" d="M61.704,4.517c-0.256-0.255-0.427-0.625-0.427-0.994c0-0.37,0.171-0.739,0.427-0.995
	c0.255-0.255,0.626-0.426,0.995-0.426s0.737,0.171,0.994,0.426c0.256,0.256,0.397,0.625,0.397,0.995
	c0,0.369-0.142,0.739-0.397,0.994c-0.257,0.255-0.625,0.398-0.994,0.398S61.959,4.772,61.704,4.517z M61.277,20.601V9.149
	c0-0.768,0.625-1.393,1.422-1.393c0.767,0,1.392,0.625,1.392,1.393v11.452c0,0.795-0.625,1.42-1.392,1.42
	C61.902,22.021,61.277,21.396,61.277,20.601z"/>
<linearGradient id="SVGID_4_" gradientUnits="userSpaceOnUse" x1="65.8232" y1="14.8594" x2="77.502" y2="14.8594">
	<stop  offset="0" style="stop-color:#000000;stop-opacity:0.6"/>
	<stop  offset="1" style="stop-color:#000000;stop-opacity:0.8"/>
</linearGradient>
<path opacity="0.8" fill="url(#SVGID_4_)" d="M77.502,20.57c0,0.769-0.625,1.422-1.393,1.422h-8.836
	c-0.539,0-1.052-0.312-1.279-0.797c-0.256-0.511-0.199-1.079,0.143-1.505l7.103-9.15h-6.023c-0.767,0-1.393-0.653-1.393-1.42
	s0.626-1.393,1.393-1.393h8.838c0.539,0,1.051,0.285,1.277,0.796c0.257,0.482,0.2,1.05-0.142,1.477l-7.104,9.179h6.023
	C76.877,19.18,77.502,19.805,77.502,20.57z"/>
<linearGradient id="SVGID_5_" gradientUnits="userSpaceOnUse" x1="79.1504" y1="14.917" x2="99.1533" y2="14.917">
	<stop  offset="0" style="stop-color:#000000;stop-opacity:0.6"/>
	<stop  offset="1" style="stop-color:#000000;stop-opacity:0.8"/>
</linearGradient>
<path opacity="0.8" fill="url(#SVGID_5_)" d="M99.126,13.582c0.027,0.057,0.027,0.085,0.027,0.141v6.906
	c0,0.796-0.652,1.421-1.421,1.421c-0.766,0-1.391-0.625-1.391-1.421v-6.906c0-0.056,0-0.084,0-0.141c0-0.029,0-0.057,0-0.114
	c0-1.591-1.309-2.87-2.897-2.87c-1.593,0-2.9,1.279-2.9,2.87v7.161c0,0.796-0.625,1.421-1.393,1.421c-0.767,0-1.42-0.625-1.42-1.421
	v-7.161c0-1.591-1.279-2.87-2.869-2.87c-1.593,0-2.899,1.279-2.899,2.87v7.161c0,0.796-0.625,1.421-1.393,1.421
	c-0.796,0-1.42-0.625-1.42-1.421v-7.161c0-3.125,2.558-5.683,5.712-5.683c1.704,0,3.238,0.739,4.289,1.96
	c1.053-1.221,2.588-1.96,4.293-1.96c3.153,0,5.709,2.558,5.709,5.683C99.153,13.525,99.153,13.553,99.126,13.582z"/>
<linearGradient id="SVGID_6_" gradientUnits="userSpaceOnUse" x1="100.8311" y1="14.8594" x2="115.0957" y2="14.8594">
	<stop  offset="0" style="stop-color:#000000;stop-opacity:0.6"/>
	<stop  offset="1" style="stop-color:#000000;stop-opacity:0.8"/>
</linearGradient>
<path opacity="0.8" fill="url(#SVGID_6_)" d="M115.096,14.861c0,0.766-0.625,1.391-1.421,1.391h-9.803
	c0.595,1.705,2.187,2.928,4.09,2.928c0.652,0,1.817-0.058,3.185-0.939c0.652-0.424,1.534-0.027,1.875,0.656
	c0.339,0.71-0.03,1.448-0.683,1.874c-1.876,1.25-3.324,1.222-4.377,1.222c-3.95,0-7.131-3.211-7.131-7.131
	c0-3.951,3.181-7.134,7.131-7.134C111.399,7.728,115.096,10.228,115.096,14.861z M103.872,13.439h8.211
	c-0.595-1.989-2.416-2.899-4.121-2.899C106.059,10.541,104.467,11.763,103.872,13.439z"/>
<linearGradient id="SVGID_7_" gradientUnits="userSpaceOnUse" x1="38.6318" y1="22.0498" x2="38.6318" y2="1.5464">
	<stop  offset="0" style="stop-color:#1DE9B6"/>
	<stop  offset="1" style="stop-color:#1DC4E9"/>
</linearGradient>
<path fill="url(#SVGID_7_)" d="M47.002,22.05l-4.361-2.27c0.788-1.027,1.191-2.441,1.191-4.253v-0.136V8.204V8.068
	c0-2.266-0.619-3.919-1.852-4.961c-1.235-1.04-2.884-1.562-4.947-1.562c-2.064,0-3.708,0.521-4.933,1.562
	c-1.226,1.042-1.838,2.695-1.838,4.961v0.136v7.188v0.136c0,2.267,0.612,3.919,1.838,4.961c1.225,1.04,2.869,1.562,4.933,1.562
	c0.091,0,0.177-0.006,0.266-0.009l-0.015,0.009H47.002z M34.573,15.527v-0.136V8.204V8.068c0-1.841,0.819-2.764,2.459-2.764
	c1.658,0,2.487,0.923,2.487,2.764v0.136v7.188v0.136c0,1.842-0.83,2.765-2.487,2.765C35.393,18.292,34.573,17.369,34.573,15.527z"/>
<linearGradient id="SVGID_8_" gradientUnits="userSpaceOnUse" x1="0.0483" y1="14.8594" x2="14.3135" y2="14.8594">
	<stop  offset="0" style="stop-color:#000000;stop-opacity:0.6"/>
	<stop  offset="1" style="stop-color:#000000;stop-opacity:0.8"/>
</linearGradient>
<path opacity="0.8" fill="url(#SVGID_8_)" d="M14.313,14.861c0,0.766-0.625,1.391-1.421,1.391H3.088
	c0.597,1.705,2.188,2.928,4.092,2.928c0.654,0,1.819-0.058,3.182-0.939c0.654-0.424,1.535-0.027,1.875,0.656
	c0.341,0.71-0.028,1.448-0.682,1.874c-1.875,1.25-3.324,1.222-4.375,1.222c-3.95,0-7.132-3.211-7.132-7.131
	c0-3.951,3.183-7.134,7.132-7.134C10.619,7.728,14.313,10.228,14.313,14.861z M3.088,13.439h8.212
	c-0.596-1.989-2.415-2.899-4.12-2.899C5.277,10.541,3.686,11.763,3.088,13.439z"/>
<linearGradient id="SVGID_9_" gradientUnits="userSpaceOnUse" x1="0.0483" y1="14.8457" x2="3.0884" y2="14.8457">
	<stop  offset="0" style="stop-color:#000000;stop-opacity:0.6"/>
	<stop  offset="1" style="stop-color:#000000;stop-opacity:0.8"/>
</linearGradient>
<path opacity="0.8" fill="url(#SVGID_9_)" d="M3.088,13.439H1.455c-0.777,0-1.407,0.629-1.407,1.406s0.63,1.406,1.407,1.406h1.633
	C2.601,14.849,3.088,13.439,3.088,13.439z"/>
<linearGradient id="SVGID_10_" gradientUnits="userSpaceOnUse" x1="11.3037" y1="14.8457" x2="14.3135" y2="14.8457">
	<stop  offset="0" style="stop-color:#000000;stop-opacity:0.6"/>
	<stop  offset="1" style="stop-color:#000000;stop-opacity:0.8"/>
</linearGradient>
<path opacity="0.8" fill="url(#SVGID_10_)" d="M12.906,13.439h-1.603c0.488,1.403,0,2.812,0,2.812h1.603
	c0.777,0,1.407-0.629,1.407-1.406S13.684,13.439,12.906,13.439z"/>
<linearGradient id="SVGID_11_" gradientUnits="userSpaceOnUse" x1="100.8311" y1="14.8457" x2="103.8721" y2="14.8457">
	<stop  offset="0" style="stop-color:#000000;stop-opacity:0.6"/>
	<stop  offset="1" style="stop-color:#000000;stop-opacity:0.8"/>
</linearGradient>
<path opacity="0.8" fill="url(#SVGID_11_)" d="M103.872,13.439h-1.635c-0.778,0-1.406,0.629-1.406,1.406s0.628,1.406,1.406,1.406
	h1.635C103.384,14.849,103.872,13.439,103.872,13.439z"/>
<linearGradient id="SVGID_12_" gradientUnits="userSpaceOnUse" x1="19.7383" y1="14.8594" x2="23.3193" y2="14.8594">
	<stop  offset="0" style="stop-color:#000000;stop-opacity:0.6"/>
	<stop  offset="1" style="stop-color:#000000;stop-opacity:0.8"/>
</linearGradient>
<polygon opacity="0.8" fill="url(#SVGID_12_)" points="21.529,12.559 23.319,14.861 21.529,17.16 19.738,14.861 "/>
<linearGradient id="SVGID_13_" gradientUnits="userSpaceOnUse" x1="73.2324" y1="9.1367" x2="77.4912" y2="9.1367">
	<stop  offset="0" style="stop-color:#000000;stop-opacity:0.6"/>
	<stop  offset="1" style="stop-color:#000000;stop-opacity:0.8"/>
</linearGradient>
<path opacity="0.8" fill="url(#SVGID_13_)" d="M76.695,7.869c-0.014-0.006-0.029-0.014-0.043-0.02
	c-0.004-0.002-0.007-0.004-0.011-0.005c-0.573-0.245-1.261-0.082-1.66,0.435l-1.749,2.262h2.85c0.458,0,0.865-0.219,1.121-0.558
	c0.005-0.007,0.054-0.073,0.058-0.08c0.133-0.195,0.23-0.441,0.23-0.766C77.491,8.647,77.156,8.068,76.695,7.869z"/>
<linearGradient id="SVGID_14_" gradientUnits="userSpaceOnUse" x1="65.8359" y1="20.5859" x2="70.0879" y2="20.5859">
	<stop  offset="0" style="stop-color:#000000;stop-opacity:0.6"/>
	<stop  offset="1" style="stop-color:#000000;stop-opacity:0.8"/>
</linearGradient>
<path opacity="0.8" fill="url(#SVGID_14_)" d="M66.67,21.857c0.016,0.006,0.029,0.013,0.043,0.021
	c0.004,0.001,0.008,0.003,0.012,0.004c0.572,0.244,1.214,0.076,1.613-0.44l1.75-2.262h-2.851c-0.457,0-0.863,0.195-1.121,0.534
	c-0.004,0.006-0.009,0.014-0.014,0.021c-0.169,0.232-0.267,0.496-0.267,0.832C65.836,21.123,66.205,21.662,66.67,21.857z"/>
</svg>
