<?xml version="1.0" encoding="utf-8"?>
<!-- Generator: Adobe Illustrator 21.1.0, SVG Export Plug-In . SVG Version: 6.00 Build 0)  -->
<svg version="1.1" id="Layer_1" xmlns="http://www.w3.org/2000/svg" xmlns:xlink="http://www.w3.org/1999/xlink" x="0px" y="0px"
	 viewBox="0 0 34 34" style="enable-background:new 0 0 34 34;" xml:space="preserve">
<style type="text/css">
	.st0{fill:url(#SVGID_1_);}
	.st1{fill:#FFFFFF;}
	.st2{fill:url(#SVGID_2_);}
	.st3{fill:url(#SVGID_3_);}
	.st4{fill:url(#SVGID_4_);}
	.st5{fill:url(#SVGID_5_);}
	.st6{fill:url(#SVGID_6_);}
	.st7{opacity:0.32;}
	.st8{fill:#333333;}
	.st9{fill:url(#SVGID_7_);}
	.st10{fill:url(#SVGID_8_);}
	.st11{fill:url(#SVGID_9_);}
	.st12{fill:url(#SVGID_10_);}
	.st13{fill:url(#SVGID_11_);}
	.st14{fill:url(#SVGID_12_);}
	.st15{fill:url(#SVGID_13_);}
	.st16{fill:url(#SVGID_14_);}
	.st17{fill:url(#SVGID_15_);}
	.st18{fill:url(#SVGID_16_);}
	.st19{fill:url(#SVGID_17_);}
	.st20{fill:url(#SVGID_18_);}
	.st21{fill:url(#SVGID_19_);}
	.st22{fill:url(#SVGID_20_);}
	.st23{fill:url(#SVGID_21_);}
	.st24{fill:url(#SVGID_22_);}
	.st25{fill:url(#SVGID_23_);}
	.st26{fill:url(#SVGID_24_);}
</style>
<g>
	<g>
		
			<linearGradient id="SVGID_1_" gradientUnits="userSpaceOnUse" x1="18.1752" y1="32.0242" x2="31.4411" y2="21.4367" gradientTransform="matrix(0.8992 -0.4375 0.4375 0.8992 -11.7306 10.5348)">
			<stop  offset="0" style="stop-color:#8E181D"/>
			<stop  offset="0.2492" style="stop-color:#9A181F"/>
			<stop  offset="0.718" style="stop-color:#BB1623"/>
			<stop  offset="1" style="stop-color:#D31126"/>
		</linearGradient>
		<polygon class="st0" points="29.4,30.5 25.1,30 22.9,33.7 14.9,17.4 21.5,14.2 		"/>
		<polygon class="st1" points="23.5,32.7 23.2,33.1 15.4,17.1 15.8,16.9 		"/>
		<polygon class="st1" points="28.8,30.4 28.2,30.4 20.6,14.6 21,14.4 		"/>
	</g>
	<g>
		
			<linearGradient id="SVGID_2_" gradientUnits="userSpaceOnUse" x1="18.9452" y1="32.3988" x2="32.2111" y2="21.8114" gradientTransform="matrix(-0.8992 -0.4375 -0.4375 0.8992 45.7899 10.5348)">
			<stop  offset="0" style="stop-color:#8E181D"/>
			<stop  offset="0.2492" style="stop-color:#9A181F"/>
			<stop  offset="0.718" style="stop-color:#BB1623"/>
			<stop  offset="1" style="stop-color:#D31126"/>
		</linearGradient>
		<polygon class="st2" points="3.8,30.5 8.1,30 10.3,33.7 18.3,17.4 11.7,14.2 		"/>
		<polygon class="st1" points="9.7,32.7 10,33.1 17.8,17.1 17.4,16.9 		"/>
		<polygon class="st1" points="4.4,30.4 5,30.4 12.6,14.6 12.2,14.4 		"/>
	</g>
	<g>
		<g>
			<linearGradient id="SVGID_3_" gradientUnits="userSpaceOnUse" x1="7.4267" y1="19.6546" x2="26.2228" y2="4.6534">
				<stop  offset="0" style="stop-color:#E67F39"/>
				<stop  offset="0.1604" style="stop-color:#E88B3A"/>
				<stop  offset="0.4635" style="stop-color:#F0A93D"/>
				<stop  offset="0.8743" style="stop-color:#FCD440"/>
				<stop  offset="1" style="stop-color:#FFE13F"/>
			</linearGradient>
			<circle class="st3" cx="16.6" cy="12.4" r="12"/>
			<linearGradient id="SVGID_4_" gradientUnits="userSpaceOnUse" x1="4.5437" y1="12.3593" x2="28.5913" y2="12.3593">
				<stop  offset="0" style="stop-color:#FFE13F"/>
				<stop  offset="0.1257" style="stop-color:#FCD440"/>
				<stop  offset="0.5365" style="stop-color:#F0A93D"/>
				<stop  offset="0.8396" style="stop-color:#E88B3A"/>
				<stop  offset="1" style="stop-color:#E67F39"/>
			</linearGradient>
			<path class="st4" d="M16.6,0.3l0,0.3c3.1,0,6.1,1.2,8.3,3.5s3.4,5.2,3.4,8.3c0,6.5-5.3,11.7-11.8,11.7c-3.1,0-6.1-1.2-8.3-3.5
				c-2.2-2.2-3.4-5.2-3.4-8.3c0-6.5,5.3-11.7,11.8-11.7L16.6,0.3 M16.6,0.3c-6.6,0-12,5.4-12,12c0,6.6,5.3,12,12,12.1c0,0,0,0,0,0
				c6.6,0,12-5.4,12-12C28.6,5.8,23.2,0.4,16.6,0.3C16.6,0.3,16.6,0.3,16.6,0.3L16.6,0.3z"/>
		</g>
		<g>
			<linearGradient id="SVGID_5_" gradientUnits="userSpaceOnUse" x1="9.6521" y1="17.6097" x2="25.6137" y2="5.4911">
				<stop  offset="0" style="stop-color:#FFE13F"/>
				<stop  offset="0.3516" style="stop-color:#F4C729"/>
				<stop  offset="0.7749" style="stop-color:#E9AA11"/>
				<stop  offset="1" style="stop-color:#E59E06"/>
			</linearGradient>
			<circle class="st5" cx="16.6" cy="12.4" r="10"/>
		</g>
		<g>
			<linearGradient id="SVGID_6_" gradientUnits="userSpaceOnUse" x1="10.2706" y1="17.1402" x2="24.8047" y2="6.1054">
				<stop  offset="0" style="stop-color:#E8A70F"/>
				<stop  offset="8.047915e-02" style="stop-color:#E5A20E"/>
				<stop  offset="0.681" style="stop-color:#CC7F09"/>
				<stop  offset="1" style="stop-color:#C27306"/>
			</linearGradient>
			<path class="st6" d="M16.6,3.2c-5,0-9.1,4.1-9.1,9.1s4.1,9.1,9.1,9.1c5,0,9.1-4.1,9.1-9.1S21.6,3.2,16.6,3.2z M16.5,20.9
				c-4.7,0-8.5-3.8-8.5-8.5c0-4.7,3.8-8.5,8.5-8.5c4.7,0,8.5,3.8,8.5,8.5C25.1,17.1,21.2,20.9,16.5,20.9z"/>
		</g>
		<g class="st7">
			<g>
				<path class="st8" d="M10.4,18.2c-1.5-1.5-2.4-3.6-2.3-5.9c0-4.7,3.8-8.5,8.5-8.5c2.3,0,4.3,0.9,5.8,2.4
					c-1.5-1.6-3.7-2.6-6.1-2.6c-4.7,0-8.5,3.8-8.5,8.5C7.8,14.5,8.8,16.7,10.4,18.2z"/>
			</g>
			<g>
				<path class="st8" d="M22.9,5.8c1.6,1.6,2.5,3.9,2.5,6.3c0,5-4.1,9.1-9.1,9.1c-2.4,0-4.7-1-6.3-2.5c1.7,1.7,4,2.8,6.6,2.8
					c5,0,9.1-4.1,9.1-9.1C25.7,9.8,24.6,7.4,22.9,5.8z"/>
			</g>
		</g>
	</g>
	<g>
		<g>
			<linearGradient id="SVGID_7_" gradientUnits="userSpaceOnUse" x1="13.8276" y1="12.3668" x2="18.3252" y2="12.3668">
				<stop  offset="0" style="stop-color:#F9C237"/>
				<stop  offset="1" style="stop-color:#FADF5D"/>
			</linearGradient>
			<path class="st9" d="M15.3,18.8V9.5h-1.5V7.4c0.8,0,1.7-0.7,1.7-1.4h2.8v12.8H15.3z"/>
			<linearGradient id="SVGID_8_" gradientUnits="userSpaceOnUse" x1="13.8276" y1="12.3668" x2="18.3252" y2="12.3668">
				<stop  offset="0" style="stop-color:#FFF068"/>
				<stop  offset="0.5471" style="stop-color:#F5CE41"/>
				<stop  offset="1" style="stop-color:#ECB424"/>
			</linearGradient>
			<path class="st10" d="M18.1,6.2v12.3h-2.5v-9V9.3h-0.2h-1.2V7.6c0.7-0.1,1.5-0.7,1.7-1.4H18.1 M18.3,6h-2.8
				c0,0.7-0.9,1.4-1.7,1.4v2.1h1.5v9.2h3V6L18.3,6z"/>
		</g>
	</g>
</g>
<g>
	<g>
		
			<linearGradient id="SVGID_9_" gradientUnits="userSpaceOnUse" x1="57.1236" y1="50.9747" x2="70.3894" y2="40.3873" gradientTransform="matrix(0.8992 -0.4375 0.4375 0.8992 -11.7306 10.5348)">
			<stop  offset="0" style="stop-color:#003066"/>
			<stop  offset="0.1911" style="stop-color:#003970"/>
			<stop  offset="0.5523" style="stop-color:#04518A"/>
			<stop  offset="1" style="stop-color:#1A7AB5"/>
		</linearGradient>
		<polygon class="st11" points="72.7,30.5 68.5,30 66.2,33.7 58.3,17.4 64.8,14.2 		"/>
		<polygon class="st1" points="66.8,32.7 66.5,33.1 58.8,17.1 59.1,16.9 		"/>
		<polygon class="st1" points="72.1,30.4 71.6,30.4 63.9,14.6 64.3,14.4 		"/>
	</g>
	<g>
		
			<linearGradient id="SVGID_10_" gradientUnits="userSpaceOnUse" x1="-20.0032" y1="13.4482" x2="-6.7373" y2="2.8608" gradientTransform="matrix(-0.8992 -0.4375 -0.4375 0.8992 45.7899 10.5348)">
			<stop  offset="0" style="stop-color:#003066"/>
			<stop  offset="0.1911" style="stop-color:#003970"/>
			<stop  offset="0.5523" style="stop-color:#04518A"/>
			<stop  offset="1" style="stop-color:#1A7AB5"/>
		</linearGradient>
		<polygon class="st12" points="47.1,30.5 51.4,30 53.6,33.7 61.6,17.4 55.1,14.2 		"/>
		<polygon class="st1" points="53,32.7 53.3,33.1 61.1,17.1 60.7,16.9 		"/>
		<polygon class="st1" points="47.8,30.4 48.3,30.4 55.9,14.6 55.5,14.4 		"/>
	</g>
	<g>
		<g>
			<linearGradient id="SVGID_11_" gradientUnits="userSpaceOnUse" x1="50.7406" y1="19.6546" x2="69.5368" y2="4.6534">
				<stop  offset="0" style="stop-color:#8A8A8A"/>
				<stop  offset="0.2356" style="stop-color:#989898"/>
				<stop  offset="0.6789" style="stop-color:#BDBDBD"/>
				<stop  offset="1" style="stop-color:#DBDBDB"/>
			</linearGradient>
			<circle class="st13" cx="59.9" cy="12.4" r="12"/>
			<linearGradient id="SVGID_12_" gradientUnits="userSpaceOnUse" x1="47.8577" y1="12.3593" x2="71.9053" y2="12.3593">
				<stop  offset="0" style="stop-color:#DBDBDB"/>
				<stop  offset="0.3211" style="stop-color:#BDBDBD"/>
				<stop  offset="0.7644" style="stop-color:#989898"/>
				<stop  offset="1" style="stop-color:#8A8A8A"/>
			</linearGradient>
			<path class="st14" d="M59.9,0.3l0,0.3c3.1,0,6.1,1.2,8.3,3.5s3.4,5.2,3.4,8.3c0,6.5-5.3,11.7-11.8,11.7c-3.1,0-6.1-1.2-8.3-3.5
				c-2.2-2.2-3.4-5.2-3.4-8.3c0-6.5,5.3-11.7,11.8-11.7L59.9,0.3 M59.9,0.3c-6.6,0-12,5.4-12,12c0,6.6,5.3,12,12,12.1c0,0,0,0,0,0
				c6.6,0,12-5.4,12-12C71.9,5.8,66.6,0.4,59.9,0.3C59.9,0.3,59.9,0.3,59.9,0.3L59.9,0.3z"/>
		</g>
		<g>
			<linearGradient id="SVGID_13_" gradientUnits="userSpaceOnUse" x1="52.9661" y1="17.6097" x2="68.9276" y2="5.4911">
				<stop  offset="0" style="stop-color:#DBDBDB"/>
				<stop  offset="0.1715" style="stop-color:#CECECE"/>
				<stop  offset="0.7126" style="stop-color:#A9A9A9"/>
				<stop  offset="1" style="stop-color:#9B9B9B"/>
			</linearGradient>
			<circle class="st15" cx="59.9" cy="12.4" r="10"/>
		</g>
		<g>
			<linearGradient id="SVGID_14_" gradientUnits="userSpaceOnUse" x1="53.5845" y1="17.1402" x2="68.1186" y2="6.1054">
				<stop  offset="0" style="stop-color:#A4A4A4"/>
				<stop  offset="8.349112e-02" style="stop-color:#9C9C9C"/>
				<stop  offset="0.6974" style="stop-color:#696969"/>
				<stop  offset="0.9985" style="stop-color:#555555"/>
			</linearGradient>
			<path class="st16" d="M59.9,3.2c-5,0-9.1,4.1-9.1,9.1c0,5,4.1,9.1,9.1,9.1c5,0,9.1-4.1,9.1-9.1S64.9,3.2,59.9,3.2z M59.9,20.9
				c-4.7,0-8.5-3.8-8.5-8.5c0-4.7,3.8-8.5,8.5-8.5c4.7,0,8.5,3.8,8.5,8.5C68.4,17.1,64.6,20.9,59.9,20.9z"/>
		</g>
		<g class="st7">
			<g>
				<path class="st8" d="M53.7,18.2c-1.5-1.5-2.4-3.6-2.3-5.9c0-4.7,3.8-8.5,8.5-8.5c2.3,0,4.3,0.9,5.8,2.4
					c-1.5-1.6-3.7-2.6-6.1-2.6c-4.7,0-8.5,3.8-8.5,8.5C51.1,14.5,52.1,16.7,53.7,18.2z"/>
			</g>
			<g>
				<path class="st8" d="M66.2,5.8c1.6,1.6,2.5,3.9,2.5,6.3c0,5-4.1,9.1-9.1,9.1c-2.4,0-4.7-1-6.3-2.5c1.7,1.7,4,2.8,6.6,2.8
					c5,0,9.1-4.1,9.1-9.1C69,9.8,67.9,7.4,66.2,5.8z"/>
			</g>
		</g>
	</g>
	<g>
		<g>
			<linearGradient id="SVGID_15_" gradientUnits="userSpaceOnUse" x1="56.7872" y1="12.3593" x2="62.9757" y2="12.3593">
				<stop  offset="0" style="stop-color:#BFBFBF"/>
				<stop  offset="1" style="stop-color:#D7D7D7"/>
			</linearGradient>
			<path class="st17" d="M60.5,9.4c0-0.4-0.2-0.7-0.6-0.7S59.3,9,59.3,9.4v0.9h-2.4V9.4c0-1.7,1.3-2.6,3-2.6c1.7,0,3.1,0.9,3.1,2.6
				v0.5c0,1.5-0.6,2.2-1.9,3.6c-1.3,1.4-1.7,1.7-1.7,2.2V16H63v1.9h-6.2v-2.1c0-0.9,0.1-1.5,2.2-3.4c1.3-1.1,1.5-1.7,1.5-2.5V9.4z"
				/>
			<linearGradient id="SVGID_16_" gradientUnits="userSpaceOnUse" x1="56.7872" y1="12.3593" x2="62.9757" y2="12.3593">
				<stop  offset="0" style="stop-color:#EAEAEA"/>
				<stop  offset="0.4096" style="stop-color:#D1D1D1"/>
				<stop  offset="1" style="stop-color:#B0B0B0"/>
			</linearGradient>
			<path class="st18" d="M59.9,7.1c1.3,0,2.8,0.6,2.8,2.4v0.5c0,1.4-0.5,2-1.8,3.4c-0.2,0.2-0.4,0.5-0.6,0.6
				c-0.8,0.9-1.1,1.2-1.1,1.8V16v0.2h0.2h3.3v1.4H57v-1.9c0-0.8,0-1.3,2.1-3.2c1.3-1.2,1.6-1.8,1.6-2.7V9.4c0-0.6-0.3-0.9-0.8-0.9
				c-0.5,0-0.8,0.4-0.8,0.9v0.6h-1.9V9.4C57.2,7.7,58.6,7.1,59.9,7.1 M59.9,6.8c-1.7,0-3,0.9-3,2.6v0.9h2.4V9.4
				c0-0.4,0.2-0.7,0.6-0.7c0.4,0,0.6,0.3,0.6,0.7v0.5c0,0.8-0.2,1.4-1.5,2.5c-2.1,1.8-2.2,2.5-2.2,3.4v2.1H63V16h-3.6v-0.2
				c0-0.6,0.4-0.9,1.7-2.2c1.3-1.4,1.9-2.1,1.9-3.6V9.4C63,7.7,61.6,6.8,59.9,6.8L59.9,6.8z"/>
		</g>
	</g>
</g>
<g>
	<g>
		
			<linearGradient id="SVGID_17_" gradientUnits="userSpaceOnUse" x1="95.7208" y1="69.7544" x2="108.9867" y2="59.167" gradientTransform="matrix(0.8992 -0.4375 0.4375 0.8992 -11.7306 10.5348)">
			<stop  offset="0" style="stop-color:#004319"/>
			<stop  offset="0.1548" style="stop-color:#004B1D"/>
			<stop  offset="0.4476" style="stop-color:#005E26"/>
			<stop  offset="0.8441" style="stop-color:#007832"/>
			<stop  offset="1" style="stop-color:#008337"/>
		</linearGradient>
		<polygon class="st19" points="115.6,30.5 111.4,30 109.1,33.7 101.2,17.4 107.7,14.2 		"/>
		<polygon class="st1" points="109.7,32.7 109.5,33.1 101.7,17.1 102.1,16.9 		"/>
		<polygon class="st1" points="115,30.4 114.5,30.4 106.8,14.6 107.2,14.4 		"/>
	</g>
	<g>
		
			<linearGradient id="SVGID_18_" gradientUnits="userSpaceOnUse" x1="-58.6004" y1="-5.3315" x2="-45.3346" y2="-15.9189" gradientTransform="matrix(-0.8992 -0.4375 -0.4375 0.8992 45.7899 10.5348)">
			<stop  offset="0" style="stop-color:#004319"/>
			<stop  offset="0.1548" style="stop-color:#004B1D"/>
			<stop  offset="0.4476" style="stop-color:#005E26"/>
			<stop  offset="0.8441" style="stop-color:#007832"/>
			<stop  offset="1" style="stop-color:#008337"/>
		</linearGradient>
		<polygon class="st20" points="90,30.5 94.3,30 96.6,33.7 104.5,17.4 98,14.2 		"/>
		<polygon class="st1" points="95.9,32.7 96.2,33.1 104,17.1 103.6,16.9 		"/>
		<polygon class="st1" points="90.7,30.4 91.2,30.4 98.9,14.6 98.5,14.4 		"/>
	</g>
	<g>
		<g>
			<linearGradient id="SVGID_19_" gradientUnits="userSpaceOnUse" x1="93.6641" y1="19.6546" x2="112.4603" y2="4.6534">
				<stop  offset="0" style="stop-color:#C75B17"/>
				<stop  offset="0.2154" style="stop-color:#CE681A"/>
				<stop  offset="0.6206" style="stop-color:#E28923"/>
				<stop  offset="1" style="stop-color:#F9AF31"/>
			</linearGradient>
			<circle class="st21" cx="102.8" cy="12.4" r="12"/>
			<linearGradient id="SVGID_20_" gradientUnits="userSpaceOnUse" x1="90.7811" y1="12.3593" x2="114.8288" y2="12.3593">
				<stop  offset="0" style="stop-color:#F9AF31"/>
				<stop  offset="0.3794" style="stop-color:#E28923"/>
				<stop  offset="0.7846" style="stop-color:#CE681A"/>
				<stop  offset="1" style="stop-color:#C75B17"/>
			</linearGradient>
			<path class="st22" d="M102.8,0.3l0,0.3c3.1,0,6.1,1.2,8.3,3.5s3.4,5.2,3.4,8.3c0,6.5-5.3,11.7-11.8,11.7
				c-6.5,0-11.8-5.3-11.7-11.8c0-6.5,5.3-11.7,11.8-11.7L102.8,0.3 M102.8,0.3c-6.6,0-12,5.4-12,12c0,6.6,5.3,12,12,12.1
				c0,0,0,0,0,0c6.6,0,12-5.4,12-12C114.8,5.8,109.5,0.4,102.8,0.3C102.8,0.3,102.8,0.3,102.8,0.3L102.8,0.3z"/>
		</g>
		<g>
			<linearGradient id="SVGID_21_" gradientUnits="userSpaceOnUse" x1="95.8895" y1="17.6097" x2="111.8511" y2="5.4911">
				<stop  offset="0" style="stop-color:#F9AF31"/>
				<stop  offset="0.6011" style="stop-color:#DC9818"/>
				<stop  offset="1" style="stop-color:#CE8E09"/>
			</linearGradient>
			<circle class="st23" cx="102.8" cy="12.4" r="10"/>
		</g>
		<g>
			<linearGradient id="SVGID_22_" gradientUnits="userSpaceOnUse" x1="96.508" y1="17.1402" x2="111.0421" y2="6.1054">
				<stop  offset="0" style="stop-color:#D69702"/>
				<stop  offset="0.6458" style="stop-color:#B67213"/>
				<stop  offset="1" style="stop-color:#AB6416"/>
			</linearGradient>
			<path class="st24" d="M102.8,3.2c-5,0-9.1,4.1-9.1,9.1s4.1,9.1,9.1,9.1c5,0,9.1-4.1,9.1-9.1S107.9,3.2,102.8,3.2z M102.8,20.9
				c-4.7,0-8.5-3.8-8.5-8.5c0-4.7,3.8-8.5,8.5-8.5c4.7,0,8.5,3.8,8.5,8.5C111.3,17.1,107.5,20.9,102.8,20.9z"/>
		</g>
		<g class="st7">
			<g>
				<path class="st8" d="M96.7,18.2c-1.5-1.5-2.4-3.6-2.3-5.9c0-4.7,3.8-8.5,8.5-8.5c2.3,0,4.3,0.9,5.8,2.4
					c-1.5-1.6-3.7-2.6-6.1-2.6c-4.7,0-8.5,3.8-8.5,8.5C94,14.5,95,16.7,96.7,18.2z"/>
			</g>
			<g>
				<path class="st8" d="M109.1,5.8c1.6,1.6,2.5,3.9,2.5,6.3c0,5-4.1,9.1-9.1,9.1c-2.4,0-4.7-1-6.3-2.5c1.7,1.7,4,2.8,6.6,2.8
					c5,0,9.1-4.1,9.1-9.1C111.9,9.8,110.9,7.4,109.1,5.8z"/>
			</g>
		</g>
	</g>
	<g>
		<g>
			<linearGradient id="SVGID_23_" gradientUnits="userSpaceOnUse" x1="99.5906" y1="12.3593" x2="106.0193" y2="12.3593">
				<stop  offset="0" style="stop-color:#C75B17"/>
				<stop  offset="0.2154" style="stop-color:#CE681A"/>
				<stop  offset="0.6206" style="stop-color:#E28923"/>
				<stop  offset="1" style="stop-color:#F9AF31"/>
			</linearGradient>
			<path class="st25" d="M102,11l0.8-0.1c0.4,0,0.8-0.3,0.8-0.7V9.2c0-0.4-0.3-0.7-0.7-0.7s-0.7,0.3-0.7,0.7V10h-2.4V9.3
				c0-1.7,1.4-2.6,3.1-2.6c1.7,0,3.1,0.9,3.1,2.6v0.8c0,0.9-0.4,1.5-0.9,1.8c0.6,0.3,1.1,0.9,1.1,1.8v1.7c0,1.7-1.5,2.6-3.2,2.6
				c-1.7,0-3.2-0.9-3.2-2.6v-1.3h2.5v1.3c0,0.4,0.3,0.7,0.7,0.7s0.7-0.3,0.7-0.7v-1.8c0-0.4-0.4-0.7-0.8-0.7l-0.7-0.1V11z"/>
			<linearGradient id="SVGID_24_" gradientUnits="userSpaceOnUse" x1="99.5906" y1="12.3593" x2="106.0193" y2="12.3593">
				<stop  offset="0" style="stop-color:#F9AF31"/>
				<stop  offset="0.3794" style="stop-color:#E28923"/>
				<stop  offset="0.7846" style="stop-color:#CE681A"/>
				<stop  offset="1" style="stop-color:#C75B17"/>
			</linearGradient>
			<path class="st26" d="M102.8,6.9c1.3,0,2.8,0.6,2.8,2.4v0.8c0,0.8-0.3,1.3-0.8,1.6l-0.4,0.2l0.4,0.2c0.6,0.3,0.9,0.9,0.9,1.6v1.7
				c0,1.6-1.5,2.4-3,2.4c-1.4,0-3-0.7-3-2.4v-1.1h2v1.1c0,0.5,0.4,0.9,0.9,0.9c0.5,0,0.9-0.4,0.9-0.9v-1.8c0-0.5-0.6-0.9-1-0.9
				c0,0,0,0,0,0l-0.5,0v-1.5l0.6,0c0.5,0,1-0.4,1-0.9V9.2c0-0.5-0.4-0.9-0.9-0.9c-0.5,0-0.9,0.4-0.9,0.9v0.6H100V9.3
				C100,7.5,101.5,6.9,102.8,6.9 M102.8,6.7c-1.7,0-3.1,0.9-3.1,2.6V10h2.4V9.2c0-0.4,0.3-0.7,0.7-0.7s0.7,0.3,0.7,0.7v1.1
				c0,0.4-0.4,0.7-0.8,0.7L102,11v1.9l0.7,0.1c0.4,0,0.8,0.3,0.8,0.7v1.8c0,0.4-0.3,0.7-0.7,0.7s-0.7-0.3-0.7-0.7v-1.3h-2.5v1.3
				c0,1.7,1.5,2.6,3.2,2.6c1.7,0,3.2-0.9,3.2-2.6v-1.7c0-0.9-0.4-1.5-1.1-1.8c0.6-0.3,0.9-0.9,0.9-1.8V9.3
				C105.9,7.6,104.5,6.7,102.8,6.7L102.8,6.7z"/>
		</g>
	</g>
</g>
</svg>
