<?xml version="1.0" encoding="utf-8"?>
<!-- Generator: Adobe Illustrator 21.1.0, SVG Export Plug-In . SVG Version: 6.00 Build 0)  -->
<svg version="1.1" id="Layer_1" xmlns="http://www.w3.org/2000/svg" xmlns:xlink="http://www.w3.org/1999/xlink" x="0px" y="0px"
	 viewBox="0 0 34 34" style="enable-background:new 0 0 34 34;" xml:space="preserve">
<style type="text/css">
	.st0{fill:url(#SVGID_1_);}
	.st1{fill:#FFFFFF;}
	.st2{fill:url(#SVGID_2_);}
	.st3{fill:url(#SVGID_3_);}
	.st4{fill:url(#SVGID_4_);}
	.st5{fill:url(#SVGID_5_);}
	.st6{fill:url(#SVGID_6_);}
	.st7{opacity:0.32;}
	.st8{fill:#333333;}
	.st9{fill:url(#SVGID_7_);}
	.st10{fill:url(#SVGID_8_);}
	.st11{fill:url(#SVGID_9_);}
	.st12{fill:url(#SVGID_10_);}
	.st13{fill:url(#SVGID_11_);}
	.st14{fill:url(#SVGID_12_);}
	.st15{fill:url(#SVGID_13_);}
	.st16{fill:url(#SVGID_14_);}
	.st17{fill:url(#SVGID_15_);}
	.st18{fill:url(#SVGID_16_);}
	.st19{fill:url(#SVGID_17_);}
	.st20{fill:url(#SVGID_18_);}
	.st21{fill:url(#SVGID_19_);}
	.st22{fill:url(#SVGID_20_);}
	.st23{fill:url(#SVGID_21_);}
	.st24{fill:url(#SVGID_22_);}
	.st25{fill:url(#SVGID_23_);}
	.st26{fill:url(#SVGID_24_);}
</style>
<g>
	<g>
		
			<linearGradient id="SVGID_1_" gradientUnits="userSpaceOnUse" x1="-309.9678" y1="-124.412" x2="-296.7019" y2="-113.8246" gradientTransform="matrix(0.8992 -0.4375 -0.4375 -0.8992 243.3543 -216.1009)">
			<stop  offset="0" style="stop-color:#004319"/>
			<stop  offset="0.1548" style="stop-color:#004B1D"/>
			<stop  offset="0.4476" style="stop-color:#005E26"/>
			<stop  offset="0.8441" style="stop-color:#007832"/>
			<stop  offset="1" style="stop-color:#008337"/>
		</linearGradient>
		<polygon class="st0" points="29.8,30.5 25.6,30 23.3,33.7 15.4,17.4 21.9,14.2 		"/>
		<polygon class="st1" points="23.9,32.7 23.7,33.1 15.9,17.1 16.3,16.9 		"/>
		<polygon class="st1" points="29.2,30.4 28.7,30.4 21,14.6 21.4,14.4 		"/>
	</g>
	<g>
		
			<linearGradient id="SVGID_2_" gradientUnits="userSpaceOnUse" x1="-1105.7601" y1="262.7664" x2="-1092.4944" y2="273.3538" gradientTransform="matrix(-0.8992 -0.4375 0.4375 -0.8992 -1094.2675 -216.1009)">
			<stop  offset="0" style="stop-color:#004319"/>
			<stop  offset="0.1548" style="stop-color:#004B1D"/>
			<stop  offset="0.4476" style="stop-color:#005E26"/>
			<stop  offset="0.8441" style="stop-color:#007832"/>
			<stop  offset="1" style="stop-color:#008337"/>
		</linearGradient>
		<polygon class="st2" points="4.2,30.5 8.5,30 10.8,33.7 18.7,17.4 12.2,14.2 		"/>
		<polygon class="st1" points="10.1,32.7 10.4,33.1 18.2,17.1 17.8,16.9 		"/>
		<polygon class="st1" points="4.9,30.4 5.4,30.4 13.1,14.6 12.7,14.4 		"/>
	</g>
	<g>
		<g>
			
				<linearGradient id="SVGID_3_" gradientUnits="userSpaceOnUse" x1="7.882" y1="16.323" x2="26.6782" y2="31.3242" gradientTransform="matrix(1 0 0 -1 0 36)">
				<stop  offset="0" style="stop-color:#C75B17"/>
				<stop  offset="0.2154" style="stop-color:#CE681A"/>
				<stop  offset="0.6206" style="stop-color:#E28923"/>
				<stop  offset="1" style="stop-color:#F9AF31"/>
			</linearGradient>
			<circle class="st3" cx="17" cy="12.4" r="12"/>
			
				<linearGradient id="SVGID_4_" gradientUnits="userSpaceOnUse" x1="5" y1="23.65" x2="29.0477" y2="23.65" gradientTransform="matrix(1 0 0 -1 0 36)">
				<stop  offset="0" style="stop-color:#F9AF31"/>
				<stop  offset="0.3794" style="stop-color:#E28923"/>
				<stop  offset="0.7846" style="stop-color:#CE681A"/>
				<stop  offset="1" style="stop-color:#C75B17"/>
			</linearGradient>
			<path class="st4" d="M17,0.3v0.3c3.1,0,6.1,1.2,8.3,3.5s3.4,5.2,3.4,8.3c0,6.5-5.3,11.7-11.8,11.7S5.1,18.8,5.2,12.3
				C5.2,5.8,10.5,0.6,17,0.6L17,0.3 M17,0.3c-6.6,0-12,5.4-12,12s5.3,12,12,12.1l0,0c6.6,0,12-5.4,12-12S23.7,0.4,17,0.3L17,0.3
				L17,0.3z"/>
		</g>
		<g>
			
				<linearGradient id="SVGID_5_" gradientUnits="userSpaceOnUse" x1="10.1073" y1="18.3668" x2="26.0689" y2="30.4854" gradientTransform="matrix(1 0 0 -1 0 36)">
				<stop  offset="0" style="stop-color:#F9AF31"/>
				<stop  offset="0.6011" style="stop-color:#DC9818"/>
				<stop  offset="1" style="stop-color:#CE8E09"/>
			</linearGradient>
			<circle class="st5" cx="17" cy="12.4" r="10"/>
		</g>
		<g>
			
				<linearGradient id="SVGID_6_" gradientUnits="userSpaceOnUse" x1="10.6776" y1="18.8998" x2="25.2117" y2="29.9346" gradientTransform="matrix(1 0 0 -1 0 36)">
				<stop  offset="0" style="stop-color:#D69702"/>
				<stop  offset="0.6458" style="stop-color:#B67213"/>
				<stop  offset="1" style="stop-color:#AB6416"/>
			</linearGradient>
			<path class="st6" d="M17,3.2c-5,0-9.1,4.1-9.1,9.1s4.1,9.1,9.1,9.1s9.1-4.1,9.1-9.1S22.1,3.2,17,3.2z M17,20.9
				c-4.7,0-8.5-3.8-8.5-8.5s3.8-8.5,8.5-8.5s8.5,3.8,8.5,8.5S21.7,20.9,17,20.9z"/>
		</g>
		<g class="st7">
			<g>
				<path class="st8" d="M10.9,18.2c-1.5-1.5-2.4-3.6-2.3-5.9c0-4.7,3.8-8.5,8.5-8.5c2.3,0,4.3,0.9,5.8,2.4
					c-1.5-1.6-3.7-2.6-6.1-2.6c-4.7,0-8.5,3.8-8.5,8.5C8.2,14.5,9.2,16.7,10.9,18.2z"/>
			</g>
			<g>
				<path class="st8" d="M23.3,5.8c1.6,1.6,2.5,3.9,2.5,6.3c0,5-4.1,9.1-9.1,9.1c-2.4,0-4.7-1-6.3-2.5c1.7,1.7,4,2.8,6.6,2.8
					c5,0,9.1-4.1,9.1-9.1C26.1,9.8,25.1,7.4,23.3,5.8z"/>
			</g>
		</g>
	</g>
	<g>
		<g>
			
				<linearGradient id="SVGID_7_" gradientUnits="userSpaceOnUse" x1="13.7906" y1="23.65" x2="20.2193" y2="23.65" gradientTransform="matrix(1 0 0 -1 0 36)">
				<stop  offset="0" style="stop-color:#C75B17"/>
				<stop  offset="0.2154" style="stop-color:#CE681A"/>
				<stop  offset="0.6206" style="stop-color:#E28923"/>
				<stop  offset="1" style="stop-color:#F9AF31"/>
			</linearGradient>
			<path class="st9" d="M16.2,11l0.8-0.1c0.4,0,0.8-0.3,0.8-0.7v-1c0-0.4-0.3-0.7-0.7-0.7s-0.7,0.3-0.7,0.7V10H14V9.3
				c0-1.7,1.4-2.6,3.1-2.6s3.1,0.9,3.1,2.6v0.8c0,0.9-0.4,1.5-0.9,1.8c0.6,0.3,1.1,0.9,1.1,1.8v1.7c0,1.7-1.5,2.6-3.2,2.6
				S14,17.1,14,15.4v-1.3h2.5v1.3c0,0.4,0.3,0.7,0.7,0.7s0.7-0.3,0.7-0.7v-1.8c0-0.4-0.4-0.7-0.8-0.7l-0.7-0.1V11H16.2z"/>
			
				<linearGradient id="SVGID_8_" gradientUnits="userSpaceOnUse" x1="13.7906" y1="23.6" x2="20.2193" y2="23.6" gradientTransform="matrix(1 0 0 -1 0 36)">
				<stop  offset="0" style="stop-color:#F9AF31"/>
				<stop  offset="0.3794" style="stop-color:#E28923"/>
				<stop  offset="0.7846" style="stop-color:#CE681A"/>
				<stop  offset="1" style="stop-color:#C75B17"/>
			</linearGradient>
			<path class="st10" d="M17,6.9c1.3,0,2.8,0.6,2.8,2.4v0.8c0,0.8-0.3,1.3-0.8,1.6l-0.4,0.2l0.4,0.2c0.6,0.3,0.9,0.9,0.9,1.6v1.7
				c0,1.6-1.5,2.4-3,2.4c-1.4,0-3-0.7-3-2.4v-1.1h2v1.1c0,0.5,0.4,0.9,0.9,0.9s0.9-0.4,0.9-0.9v-1.8c0-0.5-0.6-0.9-1-0.9l0,0h-0.5
				v-1.5h0.6c0.5,0,1-0.4,1-0.9V9.2c0-0.5-0.4-0.9-0.9-0.9S16,8.7,16,9.2v0.6h-1.8V9.3C14.2,7.5,15.7,6.9,17,6.9 M17,6.7
				c-1.7,0-3.1,0.9-3.1,2.6V10h2.4V9.2c0-0.4,0.3-0.7,0.7-0.7s0.7,0.3,0.7,0.7v1.1c0,0.4-0.4,0.7-0.8,0.7h-0.7v1.9l0.7,0.1
				c0.4,0,0.8,0.3,0.8,0.7v1.8c0,0.4-0.3,0.7-0.7,0.7s-0.7-0.3-0.7-0.7v-1.3h-2.5v1.3c0,1.7,1.5,2.6,3.2,2.6s3.2-0.9,3.2-2.6v-1.7
				c0-0.9-0.4-1.5-1.1-1.8c0.6-0.3,0.9-0.9,0.9-1.8V9.3C20.1,7.6,18.7,6.7,17,6.7L17,6.7z"/>
		</g>
	</g>
</g>
</svg>
