<?xml version="1.0" encoding="utf-8"?>
<!-- Generator: Adobe Illustrator 21.1.0, SVG Export Plug-In . SVG Version: 6.00 Build 0)  -->
<svg version="1.1" id="Layer_1" xmlns="http://www.w3.org/2000/svg" xmlns:xlink="http://www.w3.org/1999/xlink" x="0px" y="0px"
	 viewBox="0 0 34 34" style="enable-background:new 0 0 34 34;" xml:space="preserve">
<style type="text/css">
	.st0{fill:url(#SVGID_1_);}
	.st1{fill:#FFFFFF;}
	.st2{fill:url(#SVGID_2_);}
	.st3{fill:url(#SVGID_3_);}
	.st4{fill:url(#SVGID_4_);}
	.st5{fill:url(#SVGID_5_);}
	.st6{fill:url(#SVGID_6_);}
	.st7{opacity:0.32;}
	.st8{fill:#333333;}
	.st9{fill:url(#SVGID_7_);}
	.st10{fill:url(#SVGID_8_);}
	.st11{fill:url(#SVGID_9_);}
	.st12{fill:url(#SVGID_10_);}
	.st13{fill:url(#SVGID_11_);}
	.st14{fill:url(#SVGID_12_);}
	.st15{fill:url(#SVGID_13_);}
	.st16{fill:url(#SVGID_14_);}
	.st17{fill:url(#SVGID_15_);}
	.st18{fill:url(#SVGID_16_);}
	.st19{fill:url(#SVGID_17_);}
	.st20{fill:url(#SVGID_18_);}
	.st21{fill:url(#SVGID_19_);}
	.st22{fill:url(#SVGID_20_);}
	.st23{fill:url(#SVGID_21_);}
	.st24{fill:url(#SVGID_22_);}
	.st25{fill:url(#SVGID_23_);}
	.st26{fill:url(#SVGID_24_);}
</style>
<g>
	<g>
		
			<linearGradient id="SVGID_1_" gradientUnits="userSpaceOnUse" x1="-305.7033" y1="-105.871" x2="-292.4375" y2="-95.2836" gradientTransform="matrix(0.8992 -0.4375 -0.4375 -0.8992 247.6273 -197.5546)">
			<stop  offset="0" style="stop-color:#003066"/>
			<stop  offset="0.1911" style="stop-color:#003970"/>
			<stop  offset="0.5523" style="stop-color:#04518A"/>
			<stop  offset="1" style="stop-color:#1A7AB5"/>
		</linearGradient>
		<polygon class="st0" points="29.8,30.5 25.6,30 23.3,33.7 15.4,17.4 21.9,14.2 		"/>
		<polygon class="st1" points="23.9,32.7 23.6,33.1 15.9,17.1 16.2,16.9 		"/>
		<polygon class="st1" points="29.2,30.4 28.7,30.4 21,14.6 21.4,14.4 		"/>
	</g>
	<g>
		
			<linearGradient id="SVGID_2_" gradientUnits="userSpaceOnUse" x1="-1025.2417" y1="244.2254" x2="-1011.9847" y2="254.8057" gradientTransform="matrix(-0.8992 -0.4375 0.4375 -0.8992 -1013.7576 -197.5546)">
			<stop  offset="0" style="stop-color:#003066"/>
			<stop  offset="0.1911" style="stop-color:#003970"/>
			<stop  offset="0.5523" style="stop-color:#04518A"/>
			<stop  offset="1" style="stop-color:#1A7AB5"/>
		</linearGradient>
		<polygon class="st2" points="4.2,30.5 8.5,30 10.7,33.7 18.7,17.4 12.2,14.2 		"/>
		<polygon class="st1" points="10.1,32.7 10.4,33.1 18.2,17.1 17.8,16.9 		"/>
		<polygon class="st1" points="4.9,30.4 5.4,30.4 13,14.6 12.6,14.4 		"/>
	</g>
	<g>
		<g>
			
				<linearGradient id="SVGID_3_" gradientUnits="userSpaceOnUse" x1="7.8677" y1="16.3115" x2="26.6639" y2="31.3127" gradientTransform="matrix(1 0 0 -1 0 36)">
				<stop  offset="0" style="stop-color:#8A8A8A"/>
				<stop  offset="0.2356" style="stop-color:#989898"/>
				<stop  offset="0.6789" style="stop-color:#BDBDBD"/>
				<stop  offset="1" style="stop-color:#DBDBDB"/>
			</linearGradient>
			<circle class="st3" cx="17" cy="12.4" r="12"/>
			
				<linearGradient id="SVGID_4_" gradientUnits="userSpaceOnUse" x1="4.9577" y1="23.65" x2="29.0053" y2="23.65" gradientTransform="matrix(1 0 0 -1 0 36)">
				<stop  offset="0" style="stop-color:#DBDBDB"/>
				<stop  offset="0.3211" style="stop-color:#BDBDBD"/>
				<stop  offset="0.7644" style="stop-color:#989898"/>
				<stop  offset="1" style="stop-color:#8A8A8A"/>
			</linearGradient>
			<path class="st4" d="M17,0.3v0.3c3.1,0,6.1,1.2,8.3,3.5s3.4,5.2,3.4,8.3c0,6.5-5.3,11.7-11.8,11.7c-3.1,0-6.1-1.2-8.3-3.5
				c-2.2-2.2-3.4-5.2-3.4-8.3C5.2,5.8,10.5,0.6,17,0.6L17,0.3 M17,0.3c-6.6,0-12,5.4-12,12s5.3,12,12,12.1l0,0c6.6,0,12-5.4,12-12
				S23.7,0.4,17,0.3L17,0.3L17,0.3z"/>
		</g>
		<g>
			
				<linearGradient id="SVGID_5_" gradientUnits="userSpaceOnUse" x1="10.0925" y1="18.3555" x2="26.054" y2="30.4741" gradientTransform="matrix(1 0 0 -1 0 36)">
				<stop  offset="0" style="stop-color:#DBDBDB"/>
				<stop  offset="0.1715" style="stop-color:#CECECE"/>
				<stop  offset="0.7126" style="stop-color:#A9A9A9"/>
				<stop  offset="1" style="stop-color:#9B9B9B"/>
			</linearGradient>
			<circle class="st5" cx="17" cy="12.4" r="10"/>
		</g>
		<g>
			
				<linearGradient id="SVGID_6_" gradientUnits="userSpaceOnUse" x1="10.6627" y1="18.8885" x2="25.1968" y2="29.9233" gradientTransform="matrix(1 0 0 -1 0 36)">
				<stop  offset="0" style="stop-color:#A4A4A4"/>
				<stop  offset="8.349112e-02" style="stop-color:#9C9C9C"/>
				<stop  offset="0.6974" style="stop-color:#696969"/>
				<stop  offset="0.9985" style="stop-color:#555555"/>
			</linearGradient>
			<path class="st6" d="M17,3.2c-5,0-9.1,4.1-9.1,9.1s4.1,9.1,9.1,9.1s9.1-4.1,9.1-9.1S22,3.2,17,3.2z M17,20.9
				c-4.7,0-8.5-3.8-8.5-8.5s3.8-8.5,8.5-8.5s8.5,3.8,8.5,8.5S21.7,20.9,17,20.9z"/>
		</g>
		<g class="st7">
			<g>
				<path class="st8" d="M10.8,18.2c-1.5-1.5-2.4-3.6-2.3-5.9c0-4.7,3.8-8.5,8.5-8.5c2.3,0,4.3,0.9,5.8,2.4
					c-1.5-1.6-3.7-2.6-6.1-2.6c-4.7,0-8.5,3.8-8.5,8.5C8.2,14.5,9.2,16.7,10.8,18.2z"/>
			</g>
			<g>
				<path class="st8" d="M23.3,5.8c1.6,1.6,2.5,3.9,2.5,6.3c0,5-4.1,9.1-9.1,9.1c-2.4,0-4.7-1-6.3-2.5c1.7,1.7,4,2.8,6.6,2.8
					c5,0,9.1-4.1,9.1-9.1C26.1,9.8,25,7.4,23.3,5.8z"/>
			</g>
		</g>
	</g>
	<g>
		<g>
			
				<linearGradient id="SVGID_7_" gradientUnits="userSpaceOnUse" x1="13.8872" y1="23.65" x2="20.0757" y2="23.65" gradientTransform="matrix(1 0 0 -1 0 36)">
				<stop  offset="0" style="stop-color:#BFBFBF"/>
				<stop  offset="1" style="stop-color:#D7D7D7"/>
			</linearGradient>
			<path class="st9" d="M17.6,9.4c0-0.4-0.2-0.7-0.6-0.7S16.4,9,16.4,9.4v0.9H14V9.4c0-1.7,1.3-2.6,3-2.6s3.1,0.9,3.1,2.6v0.5
				c0,1.5-0.6,2.2-1.9,3.6c-1.3,1.4-1.7,1.7-1.7,2.2V16h3.6v1.9h-6.2v-2.1c0-0.9,0.1-1.5,2.2-3.4c1.3-1.1,1.5-1.7,1.5-2.5V9.4z"/>
			
				<linearGradient id="SVGID_8_" gradientUnits="userSpaceOnUse" x1="13.8872" y1="23.65" x2="20.0757" y2="23.65" gradientTransform="matrix(1 0 0 -1 0 36)">
				<stop  offset="0" style="stop-color:#EAEAEA"/>
				<stop  offset="0.4096" style="stop-color:#D1D1D1"/>
				<stop  offset="1" style="stop-color:#B0B0B0"/>
			</linearGradient>
			<path class="st10" d="M17,7.1c1.3,0,2.8,0.6,2.8,2.4V10c0,1.4-0.5,2-1.8,3.4c-0.2,0.2-0.4,0.5-0.6,0.6c-0.8,0.9-1.1,1.2-1.1,1.8
				V16v0.2h0.2h3.3v1.4h-5.7v-1.9c0-0.8,0-1.3,2.1-3.2c1.3-1.2,1.6-1.8,1.6-2.7V9.4c0-0.6-0.3-0.9-0.8-0.9s-0.8,0.4-0.8,0.9V10h-1.9
				V9.4C14.3,7.7,15.7,7.1,17,7.1 M17,6.8c-1.7,0-3,0.9-3,2.6v0.9h2.4V9.4c0-0.4,0.2-0.7,0.6-0.7c0.4,0,0.6,0.3,0.6,0.7v0.5
				c0,0.8-0.2,1.4-1.5,2.5c-2.1,1.8-2.2,2.5-2.2,3.4v2.1h6.2V16h-3.6v-0.2c0-0.6,0.4-0.9,1.7-2.2c1.3-1.4,1.9-2.1,1.9-3.6V9.4
				C20.1,7.7,18.7,6.8,17,6.8L17,6.8z"/>
		</g>
	</g>
</g>
</svg>
