<?xml version="1.0" encoding="utf-8"?>
<!-- Generator: Adobe Illustrator 21.1.0, SVG Export Plug-In . SVG Version: 6.00 Build 0)  -->
<svg version="1.1" id="Layer_1" xmlns="http://www.w3.org/2000/svg" xmlns:xlink="http://www.w3.org/1999/xlink" x="0px" y="0px"
	 viewBox="0 0 750 1334" style="enable-background:new 0 0 750 1334;" xml:space="preserve">
<style type="text/css">
	.st0{fill:#F9AF3E;}
	.st1{fill:#E56BA4;}
	.st2{fill:#3CBCBF;}
	.st3{fill:#FF8C79;}
	.st4{fill:#FF93D5;}
	.st5{fill:#8A68AF;}
	.st6{fill:#EA4468;}
	.st7{fill:#4ED2C2;}
	.st8{fill:#FEDB47;}
	.st9{fill:#00ACE4;}
</style>
<path class="st0" d="M45.7,191.2c3.1-6.1,1.5-13.7-5.4-15.6c-6.5-1.8-14.4,4.7-16.6,10.3c-0.4,1-0.7,2.1-0.9,3.1
	c-0.5-0.6-0.9-1.2-1.3-1.8c-5.3-8.9,2.7-16.5,8.3-22.5c0.5-0.5,0-1.4-0.7-1.2C16,167.3,10,182.1,17.9,193.4c1.4,2,3,3.6,4.8,4.8
	c1.8,10.6,10,21,19.5,24.4c1.7,0.6,2.5-1.9,1.2-2.8c-6.1-4.3-9.7-11.9-11.9-19.1C37.1,200.6,42.6,197.3,45.7,191.2z M39.8,186.4
	c-0.5,2.2-2.5,4.8-4.3,6.2c-1.8,1.3-3.6,1.6-5.5,1.2c-0.1-2.9,0.6-5.8,2.4-8C33,185.1,41.4,178.7,39.8,186.4z"/>
<path class="st1" d="M484.9,118.6c-0.3-1.6-2.4-1.8-3.4-0.9c-2.8,2.4-4.4,5.2-6.4,8.3c-1.8,2.9-4.1,5.7-5,9.1
	c-0.2,0.8,0.5,1.5,1.3,1.3c3.9-1,7.2-3.9,9.9-6.8C484.2,126.4,485.6,123,484.9,118.6z"/>
<path class="st2" d="M193.4,271.7c-3.5,0-7.5,1.3-10.2,3.7c-1.4,1.3-1.5,4.1,0,5.4c3.3,2.7,7.7,2.6,11.7,2.1
	c2.4-0.4,4.2-3.2,4.2-5.5C199.1,274.3,196.5,271.6,193.4,271.7z"/>
<path class="st2" d="M109.2,679.3c-4.4-2.1-9.2-1.3-13.8-0.4c-3.6,0.7-2.6,6.2,0.8,6.3c2.9,0,5.9,0,8.7,1c2.7,0.9,3.4,5.2,5.2,7
	c1.8,1.8,4.9,0.9,5.6-1.5C117.2,686.9,113.7,681.4,109.2,679.3z"/>
<path class="st2" d="M399.9,235.4c-0.4-5.5-0.6-10.9-2.8-16c-1.3-2.9-5-1.4-5.9,0.8c-2,4.8-1.7,10.1-1.7,15.2c0,5.7,0.1,9.5,3.8,14
	c0.8,1,2.7,1,3.5,0C400.4,244.9,400.3,241.2,399.9,235.4z"/>
<path class="st2" d="M644,611.9c-4,0.7-7.2,3.3-11,4.7c-4.7,1.7-9.4,1.3-14-0.5c-1.7-0.7-3.5,0.5-4.5,1.8c-2.9,4.2-8.1,5.3-12.9,4.6
	c-2.9-0.5-5.1-3-8-3c-0.1,0-0.3,0.1-0.3,0.2c-2.4,4.6,4.7,8.5,8.1,9.6c6,2,13.3-0.5,17.8-4.8c9.7,2.7,24.9,1,27.5-9.9
	C647.2,612.9,645.7,611.6,644,611.9z"/>
<path class="st2" d="M718.9,633.9c-0.8-5.7-1.7-11.7-4.1-17c-0.7-1.5-2.6-0.8-3.1,0.4c-2.1,5-1.5,10.3-1.2,15.6
	c0.3,5.6-0.8,11.6,1.5,16.8c1.1,2.5,4.3,1.7,5.6,0C721,645.2,719.7,639.1,718.9,633.9z"/>
<path class="st3" d="M536.5,132.8c-1.4-1.4-3.3-2.2-5.3-2.2c-2.5,0-5.3,1.4-6.5,3.7c-0.1,0.2-0.2,0.3-0.2,0.5c-0.7,1.1-1,2.4-1,3.7
	c-0.1,0.9,0.2,1.7,0.3,2.6c0.4,2.2,2.6,4.2,4.7,4.8c0.6,0.1,1.2,0.2,1.9,0.2c0.8,0,1.5-0.1,2.1-0.4c-0.1,0-0.1,0-0.2,0.1
	c0.1-0.1,0.3-0.1,0.4-0.2c0.2-0.1,0.3-0.1,0.5-0.2c0.6-0.3,1.2-0.5,1.8-0.8C539.1,142.2,539.9,136.3,536.5,132.8z"/>
<path class="st4" d="M579.2,209c-2.8-5.7-6.8-10.9-9.2-16.8c-3-7.3,1.3-9.5,6-14.2c0.4-0.4,0.1-1.1-0.5-1.1c-5-0.6-10,2.3-12,6.9
	c-2.2,4.9,0,10.3,2,14.8c2.6,5.8,6.7,10.9,9.2,16.9c0.9,2.2,1.5,4.5,0.9,6.8c-0.7,2.7-4.4,3.9-5.7,6.5c-0.6,1.1-0.1,2.5,1.2,2.9
	c5.2,1.4,9.4-3.2,11.1-7.6C584,219.2,581.4,213.3,579.2,209z"/>
<path class="st5" d="M598.6,225.9c-5.1,1.6-8.4,5.4-11.4,9.7c-1.5,2.2-2.8,4.4-4.3,6.6c-1.2,1.9-3,3.7-4,5.7c-0.6,1.2,0.1,3,1.6,2.8
	c4.2-0.3,7.5-5.2,9.9-8.2c3.5-4.4,6.4-9.1,9.9-13.4C601.6,227.7,600.6,225.3,598.6,225.9z"/>
<path class="st5" d="M704.3,267.7c4.1-7.4,3.9-17.6,0.1-24.9c-7.7-14.4-24.6-8.5-29.9,4.2c-0.6,1.5,1.5,2.3,2.5,1.4
	c5.7-5.1,12.6-11.7,19.5-4.6c5,5.1,5.2,13.1,2.3,19.2c-2.4-1.4-5.1-2.2-8.1-2.4c-13.7-0.7-10.5,18.3,1.8,15.7
	c2.8-0.6,5.1-1.7,7.1-3.3c0.1,0.1,0.2,0.3,0.3,0.4c4,5.7,5.6,13,8.6,19.2c1,2,4,1,4.1-1.1C712.7,283.8,709.9,274.1,704.3,267.7z
	 M692,269.8c-1.1,0.4-5.3-1.1-3.4-1.9c2-0.8,4-0.4,5.7,0.6C693.6,269,692.8,269.5,692,269.8z"/>
<path class="st1" d="M59.5,186.6c-7.3,8.4-7.1,23.6-3.3,33.6c0.4,1.1,1.9,1.1,2.3,0c1.6-4.3,1.2-8.9,1.5-13.5
	c0.3-6.1,1.6-12,3.7-17.7C64.6,186.7,61.2,184.8,59.5,186.6z"/>
<path class="st5" d="M312.5,713.8c-19-17.6-28.8-44.5-27.3-70.3c0.2-3.2-5.1-4-5.6-0.8c-4.3,24.6,8,61.3,31.8,72.5
	C312.2,715.7,313.3,714.6,312.5,713.8z"/>
<path class="st6" d="M310.5,675.8c-1.3-7.1-1.6-14.2-2.6-21.3c-0.6-4.3-6.6-2.7-7,0.9c-1.4,13.1,4.2,28.9,9.9,40.5
	c0.6,1.2,2.3,0.6,2.3-0.6C313.1,688.7,311.7,682.2,310.5,675.8z"/>
<path class="st7" d="M83.1,607.8C78,601,72.8,594,69.8,585.9c-3.3-8.9,4.1-11.2,11.6-12.5c2.4-0.4,1.6-3.8-0.5-4
	c-11.6-0.9-21.2,4.1-19.5,16.9c1.8,13,13.5,25.4,21.3,35.2c3.6,4.5,7.3,8.9,10.4,13.8c3.8,6.1-1.3,14.4-7.1,18.6
	c-0.5-1.3-1-2.6-1.7-3.8c-3.8-7.2-15.6-13.7-22.6-7.4c-7.8,7,6.4,19.4,12.4,21.4c2.6,0.9,5.1,0.9,7.6,0.5c0.7,6.6-0.1,13.8-0.2,19.1
	c0,2.7,3.9,3.2,4.6,0.6c1.9-7,2.8-14.7,1.9-22c5.4-3.1,9.9-8.5,12.3-13.6C107.9,632.6,91.9,619.6,83.1,607.8z M71.3,653
	c-1-1-4.5-4.7-1.9-4.7c2.8,0,5.2,2,7.1,3.7c1.4,1.2,2.4,2.8,3.2,4.5C76.6,656.7,73.7,655.5,71.3,653z"/>
<path class="st4" d="M398,583c-0.1-2.2-1.7-3.7-3.8-3.8c-0.2,0-0.3,0-0.4,0c-0.4-0.1-0.8-0.1-1.2-0.2c0.4,0.1,0.9,0.1,1.3,0.2
	c-0.3,0-0.6-0.1-0.9-0.2c-3.3-0.9-6.7,1.6-6.7,5.1c0,3.5,3.4,6,6.7,5.1c0.7-0.2,1.4-0.5,2.1-0.8c1.1-0.5,2.1-1.8,2.5-3.1
	C397.9,584.7,398.1,584,398,583z"/>
<path class="st3" d="M431.5,585.7c-5.6,0-5.6,8.7,0,8.7C437.1,594.4,437.1,585.7,431.5,585.7z"/>
<path class="st5" d="M725.2,325.7c-7.1,0-7.1,11,0,11C732.3,336.7,732.3,325.7,725.2,325.7z"/>
<path class="st8" d="M140.1,200c-7.2,0-7.2,11.2,0,11.2C147.3,211.2,147.3,200,140.1,200z"/>
<path class="st6" d="M175.2,219.1c-0.1-0.5-0.4-0.9-0.6-1.3c0,0,0,0,0,0c0,0,0-0.1-0.1-0.1c-2.3-3.9-8.3-3.1-9.5,1.2
	c-1.2,4.4,3.7,8.2,7.7,5.9c1.3-0.7,2.1-1.8,2.5-3.1C175.5,220.9,175.4,219.9,175.2,219.1z"/>
<path class="st8" d="M187.4,191.8c-4.5,0-4.5,7,0,7C191.9,198.8,191.9,191.8,187.4,191.8z"/>
<path class="st6" d="M515.4,179.7c-6.7,0-6.7,10.4,0,10.4S522.1,179.7,515.4,179.7z"/>
<path class="st3" d="M533.1,204.3c-3.6,0-3.6,5.6,0,5.6C536.7,209.9,536.7,204.3,533.1,204.3z"/>
<path class="st1" d="M441.3,652.3c1-1.3-0.2-3-1.6-3.2c-3.7-0.5-6.8,0.1-10.5,0.7c-3.4,0.5-7,0.7-10.1,2.2c-0.7,0.4-0.8,1.4-0.1,1.9
	c3.3,2.2,7.7,2.9,11.7,2.9C435,656.9,438.5,655.8,441.3,652.3z"/>
<path class="st3" d="M464.6,700.5c0.1-2-0.5-4-1.8-5.4c-1.7-1.9-4.6-3.1-7.1-2.4c-0.2,0-0.3,0.1-0.5,0.1c-1.3,0.3-2.5,0.8-3.5,1.7
	c-0.7,0.5-1.2,1.3-1.8,1.9c-1.4,1.8-1.4,4.7-0.5,6.7c0.3,0.6,0.6,1.1,1,1.6c0.5,0.6,1.1,1,1.7,1.3c-0.1,0-0.1-0.1-0.2-0.1
	c0.1,0.1,0.3,0.1,0.4,0.2c0.1,0.1,0.3,0.2,0.4,0.2c0.6,0.3,1.2,0.6,1.8,0.8C459.3,708.7,464.3,705.3,464.6,700.5z"/>
<path class="st6" d="M415.4,715.5c-4.4-5-12.2,1.8-7.8,6.8C412,727.4,419.9,720.6,415.4,715.5z"/>
<path class="st3" d="M408.7,745.1c-2.4-2.7-6.6,1-4.2,3.7C406.8,751.5,411,747.8,408.7,745.1z"/>
<path class="st4" d="M114.1,568.1c-5.4,0-7.4,7.4-2.7,10.1c0.2,0.1,0.5,0.3,0.7,0.4c0.7,0.4,1.4,0.5,2,0.5c0.7,0,1.4-0.1,2-0.5
	c0.2-0.1,0.5-0.3,0.7-0.4C121.5,575.5,119.5,568.1,114.1,568.1z"/>
<path class="st1" d="M336.3,162.8c-0.4-6-0.2-13.1-3.7-18.1c-1-1.4-2.8-1.4-3.8,0c-3.1,4.5-2.7,10-2.9,15.3
	c-0.3,7.4,0.5,14.9,1.3,22.2c0.3,2.4,1.5,4.5,4,5.2c1.7,0.5,2.6,0.3,4.2-0.5c1.5-0.8,2.9-2.9,2.7-4.7
	C337.4,175.8,336.7,169.3,336.3,162.8z"/>
<path class="st7" d="M192.8,412c-2-2.6-5.2-4.8-7.8-6.5c-3.9-2.5-9.8-5.7-14.2-2.7c-2.2,1.5-3,4.6-0.9,6.6c2.8,2.7,8.1,4.2,11.6,5.9
	c3.7,1.7,6.5,2.7,10.5,1.8C194.8,416.7,194.6,413.4,192.8,412z"/>
<path class="st5" d="M188.6,426.8c-6.5-2.4-15.3-1.2-20.8,3c-1.6,1.2-1.2,3.9,1.1,4c6.4,0.2,14.5-0.6,20.2-3.8
	C190.4,429.2,190,427.3,188.6,426.8z"/>
<path class="st6" d="M77.7,424.4c-2.8-6.1-12.3-1.7-9.5,4.4C71.1,434.8,80.6,430.5,77.7,424.4z"/>
<path class="st3" d="M67.1,400c-3.2-6.8-13.8-1.9-10.6,4.9C59.7,411.7,70.3,406.8,67.1,400z"/>
<path class="st6" d="M64.9,372.7c0.6-2,0.4-4.3-1.1-5.9c-0.8-0.9-1.5-1.5-2.7-1.9c-0.7-0.3-1.4-0.3-2-0.3c-0.2,0-0.3,0-0.5,0
	c-0.4,0-0.7,0-1,0c-0.5-0.3-1-0.5-1.5-0.6c-1.8-0.2-3.3,1.2-3.5,2.9c0,0.3-0.1,0.5-0.1,0.8c0,0.1,0,0.2,0,0.3
	c-0.8,1.7-0.9,3.6-0.1,5.4c0.8,1.8,2.9,3.6,5.1,3.6c0.8,0,1.6,0,2.4-0.1C62.2,376.4,64.2,375,64.9,372.7z"/>
<path class="st9" d="M152.7,675.4c-5.2,0-9.6,4.3-9.6,9.6c0,5.2,4.3,9.6,9.6,9.6c5.2,0,9.6-4.3,9.6-9.6
	C162.3,679.7,157.9,675.4,152.7,675.4z"/>
<path class="st7" d="M212.4,707.1c-1.6-0.4-3.2-0.4-4.8,0c-2.4,0.7-3.9,2.2-5.3,4.1c-0.3,0.5-0.6,0.9-0.8,1.5
	c-0.5,0.9-0.9,1.9-0.9,3c0,1.1,0.4,2.1,0.9,3.1c0.2,0.5,0.5,1,0.8,1.5c0.8,1.3,1.9,2.4,3.2,3.2c2.1,1.2,4.6,1.5,6.9,0.9
	c3.8-1.1,6.6-4.6,6.6-8.6C219,711.8,216.3,708.2,212.4,707.1z"/>
</svg>
